<svg version="1.2" xmlns="http://www.w3.org/2000/svg" viewBox="0 0 544 389" width="544" height="389"><style>.a{fill:#0084e3}</style><path class="a" d="m46.3 155.7q1.3 0 2.5 0 4 0 8.1 0 2.9 0 5.8 0 8.1 0 16.1 0 8.7 0 17.3 0 17 0 34 0 13.8 0 27.6 0 2 0 4 0 4 0 8 0 36.3 0 72.7 0 33.2 0.1 66.3 0 37.3 0 74.6 0 4 0 8 0c1.9 0 1.9 0 3.9 0q13.8 0 27.6 0 16.8 0 33.6 0 8.6 0 17.2 0 7.8 0 15.7 0 2.8 0 5.6 0 3.9 0 7.8 0c1.1 0 1.1 0 2.2 0 10.9 0.1 22.1 4.1 30 11.7 7.7 8.6 11.7 18 11 29.7-1.2 10.2-5.3 19.2-13.2 25.8-9.5 7.1-19 9.3-30.8 9.2-1.2 0-1.2 0-2.4 0q-4 0-8.1 0-2.9 0.1-5.8 0.1-8 0-16 0-8.7 0-17.3 0-20.9 0-41.7 0-9.9 0-19.7 0.1-32.7 0-65.3 0-2.2 0-4.3 0-1 0-2.1 0-5.3 0-10.6 0c-1.1 0-1.1 0-2.1 0q-34.2 0-68.3 0.1-36.1 0-72.2 0-19.7 0-39.4 0.1-16.8 0-33.5 0-8.6 0-17.1 0-7.8 0-15.7 0-2.8 0-5.6 0c-15 0.1-29.1-1.2-40.4-12.2-7.6-8.4-10.9-17.3-10.5-28.7 1-10.8 5.4-18.8 13-26.4 9.2-6.3 18.4-9.5 29.5-9.5z"/><path class="a" d="m46 2.9q1.2 0 2.4 0 4.1 0 8.2 0 2.9-0.1 5.8-0.1 8.1 0 16.2 0 8.7 0 17.4 0 21 0 42 0 9.9 0 19.8-0.1 32.9 0 65.8 0 2.1 0 4.2 0c1.1 0 1.1 0 2.2 0q5.3 0 10.7 0c1 0 1 0 2.1 0q34.4 0 68.8-0.1 36.3 0 72.7 0 19.8 0 39.6-0.1 16.9 0 33.8 0 8.6 0 17.2 0 7.9 0 15.8 0 2.8 0 5.7 0c14.5-0.1 27.3 1.3 38.6 11.5 7.5 8.3 11.5 18 11 29.2-0.6 5.9-2 10.7-5 15.8q-0.9 1.5-1.8 3.1c-6.5 8.4-14.8 13.6-25.2 15.9-2.8 0.2-5.5 0.3-8.3 0.3q-1.2 0-2.4 0-4.1 0-8.2 0-2.9 0-5.9 0-8.1 0-16.2 0-8.7 0-17.5 0-17.1 0-34.2 0-13.9 0-27.8 0c-2 0-2 0-4 0q-3 0-6.1 0-28 0-56 0-1 0-2.1 0-5.4 0-10.7 0-1.1 0-2.2 0-2.1 0-4.3 0-33.4 0-66.9 0-37.5 0.1-75.1 0.1-4 0-8 0-2 0-4 0-13.9 0-27.8 0-17 0-33.9 0-8.6 0-17.3 0-7.9 0-15.8 0-2.9 0-5.7 0c-14.9 0-27.4-0.7-38.8-11.5-8.3-8.7-11.2-17.8-11.1-29.7 0.9-10.1 5.9-18.2 13.2-24.9 8.6-7 18.2-9.5 29.1-9.4z"/><path class="a" d="m46.3 307.9q1.2 0 2.4 0 4.1 0 8.1 0 3 0 5.9 0 8.1-0.1 16.2-0.1 8.7 0 17.5 0 19 0 38.1 0 11.9 0 23.8 0 33 0 65.9 0 2.2 0 4.3 0 2.1 0 4.3 0 4.3 0 8.5 0 1.1 0 2.2 0 34.4 0 68.9-0.1 36.4 0 72.9 0 19.8 0 39.7 0 16.9-0.1 33.8-0.1 8.6 0 17.3 0 7.9 0 15.8 0 2.8 0 5.7 0c14.5 0 26.4 0.8 37.4 11.3 8.4 9.1 10.5 17.9 10.3 30-0.5 9.4-5.3 17.5-12.1 23.8-9.1 7.2-17.9 9.5-29.3 9.4q-1.2 0-2.5 0-4 0.1-8.1 0.1-2.9 0-5.9 0-8.1 0-16.1 0-8.8 0-17.5 0-21 0.1-42.1 0.1-5.9 0-11.9 0-36.9 0-73.8 0-8.6 0-17.1 0.1-1.1 0-2.2 0-34.4 0-68.8 0-35.4 0.1-70.9 0.1-20.8 0-41.7 0.1-16.9 0-33.8 0-8.6 0-17.2 0-7.9 0-15.8 0-2.8 0-5.7 0c-14 0.1-25.7-1.2-36.9-10.7-3.2-3.3-5.7-6.8-7.9-10.9q-0.5-0.9-1-1.8c-3.9-8.1-3.2-19.7-0.6-28.1 4.3-10.1 12.5-16.7 22.2-21.4 5.7-1.7 11.7-1.8 17.7-1.8z"/></svg>