<?xml version="1.0" encoding="UTF-8"?>
<svg version="1.1" xmlns="http://www.w3.org/2000/svg" width="1536" height="1024">
<path d="M0 0 C0.74223312 -0.0049649 1.48446625 -0.00992981 2.24919128 -0.01504517 C4.69665469 -0.02960757 7.14405317 -0.03646085 9.59155273 -0.04199219 C10.43252943 -0.04481956 11.27350613 -0.04764694 12.13996696 -0.05056 C16.59526761 -0.06553312 21.05053607 -0.07477289 25.50585938 -0.07910156 C30.07947754 -0.08456622 34.652795 -0.108557 39.22631931 -0.13707352 C42.76709309 -0.15582364 46.30779644 -0.16091215 49.84861565 -0.16243744 C51.53290376 -0.16543947 53.21719137 -0.1733838 54.90143013 -0.18662262 C69.86552473 -0.29579805 82.65088469 0.86110865 94.15014648 11.34863281 C100.8216515 18.4935018 103.43807184 27.56683932 105.77514648 36.84863281 C106.06075439 37.94626953 106.3463623 39.04390625 106.640625 40.17480469 C107.25772831 42.55228686 107.86977095 44.93108713 108.47729492 47.31103516 C109.53353152 51.43810431 110.60986725 55.55959652 111.68920898 59.68066406 C112.42728582 62.50720147 113.16393668 65.3341086 113.90014648 68.16113281 C114.07953766 68.84887787 114.25892883 69.53662292 114.4437561 70.24520874 C114.95141842 72.19565772 115.45516922 74.14712353 115.95874023 76.09863281 C116.24934326 77.22140625 116.53994629 78.34417969 116.83935547 79.50097656 C117.46264648 82.16113281 117.46264648 82.16113281 117.46264648 84.16113281 C118.51888877 84.16052128 118.51888877 84.16052128 119.59646928 84.15989739 C171.57283603 84.13140925 223.54860935 84.21205746 275.52481371 84.33740553 C278.59028288 84.34478937 281.65575215 84.35213103 284.72122145 84.35946012 C303.96724464 84.40549156 323.21326635 84.45210341 342.45928383 84.50047207 C346.83947371 84.51147117 351.2196636 84.52246412 355.59985352 84.53344727 C356.68770171 84.53617557 357.7755499 84.53890387 358.89636318 84.54171485 C376.64152718 84.58611395 394.38669789 84.62669121 412.13187428 84.66578542 C430.53316961 84.70639162 448.93445394 84.75052148 467.33573282 84.79801136 C477.59614907 84.82440374 487.85656388 84.84931942 498.11699295 84.87020683 C506.81369817 84.88791702 515.51038845 84.90884924 524.20707603 84.93380123 C528.62232302 84.94637464 533.03756017 84.9575589 537.45281982 84.96455193 C553.71313414 84.99138694 569.9673191 85.08239568 586.22177124 85.54896545 C587.4348894 85.57903732 588.64800756 85.60910918 589.89788687 85.64009231 C600.46488846 85.99197889 609.17091616 87.13227123 617.46264648 94.16113281 C622.24548011 99.62911065 622.92099795 105.10841105 622.84741211 112.14941406 C622.35433382 119.42299984 619.81054322 126.37207234 617.62460327 133.27832031 C615.99298457 138.43607653 614.42338005 143.61293649 612.84155273 148.78613281 C612.49486038 149.9135791 612.14816803 151.04102539 611.79096985 152.20263672 C608.99319621 161.3294098 606.31415865 170.48688562 603.67749023 179.66113281 C603.37178132 180.72443188 603.37178132 180.72443188 603.05989647 181.80921173 C602.22524352 184.71300389 601.39108176 187.61693663 600.5574789 190.52103043 C593.21361206 216.10353898 585.65459166 241.60061038 577.71459961 267.00561523 C573.98694947 278.94224929 570.32422049 290.8952346 566.76733398 302.88378906 C566.57269499 303.53939945 566.37805599 304.19500984 566.17751884 304.87048721 C564.10612283 311.84954823 562.04465096 318.83146256 559.99316406 325.81640625 C559.32029121 328.09409327 558.64736125 330.37176343 557.97436523 332.64941406 C557.67718597 333.66979263 557.38000671 334.6901712 557.07382202 335.74147034 C552.9820405 349.55604373 548.30546682 361.38909394 535.46264648 369.16113281 C529.47385753 372.2444697 524.17328674 374.28524176 517.39112854 374.28811646 C516.36024581 374.2909388 515.32936308 374.29376114 514.26724148 374.29666901 C513.13491117 374.29464226 512.00258085 374.29261551 510.8359375 374.29052734 C509.63012811 374.292257 508.42431871 374.29398666 507.18196964 374.29576874 C503.82334854 374.29939735 500.46478712 374.29843697 497.10616922 374.29535723 C494.20927354 374.29344559 491.31238402 374.29506842 488.41548848 374.29669416 C480.47349614 374.30111446 472.53152153 374.29805939 464.58953118 374.29169786 C458.71366861 374.28703711 452.83780882 374.28464797 446.96194458 374.28344727 C360.79417424 374.26250827 274.62830683 373.7219811 188.46264648 373.16113281 C189.84396727 378.92843249 191.23165502 384.69414857 192.62524414 390.45849609 C193.0983494 392.41933744 193.56971755 394.38059877 194.03930664 396.34228516 C194.71490623 399.16323484 195.3967555 401.98261106 196.07983398 404.80175781 C196.28824921 405.67793762 196.49666443 406.55411743 196.71139526 407.45684814 C196.91145172 408.27739685 197.11150818 409.09794556 197.31762695 409.94335938 C197.49083466 410.66283752 197.66404236 411.38231567 197.84249878 412.12359619 C198.50042565 414.28525876 199.39882661 416.17154522 200.46264648 418.16113281 C213.1709019 418.31396636 225.87924495 418.458501 238.58764648 418.59863281 C239.59921814 418.60980133 240.61078979 418.62096985 241.65301514 418.63247681 C280.00691387 419.05377798 318.36101869 419.3292209 356.71638489 419.56813812 C368.16535745 419.63957133 379.61430113 419.71471977 391.06323242 419.79248047 C391.86282883 419.79790422 392.66242523 419.80332798 393.48625183 419.80891609 C401.39294341 419.8625789 409.29963201 419.91666301 417.20631695 419.97129583 C420.99260559 419.99743384 424.77889524 420.02342115 428.56518555 420.04931641 C429.66115744 420.05681852 429.66115744 420.05681852 430.77927017 420.0644722 C441.54069026 420.13783645 452.30213083 420.19975781 463.06366348 420.25453758 C470.80906907 420.29484589 478.5543003 420.34772537 486.29952621 420.41420937 C491.2066907 420.45592551 496.11355958 420.48237457 501.02087975 420.49553394 C503.91361577 420.50740722 506.80600638 420.53546107 509.69856644 420.5688839 C511.57911147 420.58605161 513.45980263 420.5840375 515.34042358 420.58100891 C522.84094682 420.6934226 528.72989351 421.52947523 534.33764648 426.98535156 C537.41030416 432.07444083 538.45271984 436.2426943 537.46264648 442.16113281 C535.63730057 447.43435434 532.85545445 449.95804367 528.46264648 453.16113281 C524.83921031 454.36894487 521.36766544 454.47724 517.58764648 454.66113281 C513.14009496 454.87986485 508.81283563 455.1375589 504.46264648 456.16113281 C504.93573242 456.48984375 505.40881836 456.81855469 505.89624023 457.15722656 C519.71117923 467.09428795 529.59969145 479.94860603 533.00952148 496.87597656 C535.26482104 513.22689832 532.76276223 528.26251194 523.46264648 542.16113281 C513.30089531 555.16968256 498.15423029 565.83060979 481.46264648 568.16113281 C462.97372631 569.61342128 447.51539787 565.9683101 433.20092773 553.73925781 C421.98330448 543.1777295 412.89982249 530.31016508 412.12670898 514.49707031 C411.78259321 495.70797289 416.13565415 480.31650227 429.27124023 466.20410156 C433.50158192 462.26030708 438.27910639 458.75290286 443.46264648 456.16113281 C384.06264648 456.16113281 324.66264648 456.16113281 263.46264648 456.16113281 C267.91764648 459.13113281 267.91764648 459.13113281 272.46264648 462.16113281 C284.19577164 470.54193649 290.11730146 483.18266083 292.58740234 497.00878906 C295.32588678 514.06415764 292.36652534 529.44979403 282.64624023 543.85253906 C273.13468975 556.4385301 259.20133111 565.40071462 243.72436523 568.72753906 C227.7732084 570.84799225 213.56500194 569.08890875 200.46264648 559.16113281 C196.96511385 556.31321619 193.6780782 553.32306317 190.46264648 550.16113281 C189.73948242 549.45085938 189.01631836 548.74058594 188.27124023 548.00878906 C178.70240126 537.96786315 173.71056803 524.88826979 172.46264648 511.16113281 C172.39819336 510.47277344 172.33374023 509.78441406 172.26733398 509.07519531 C171.48372511 493.3507773 178.056774 477.6863621 188.46264648 466.16113281 C192.81943935 461.87919894 197.14943078 458.19991934 202.46264648 455.16113281 C201.48424805 454.94199219 200.50584961 454.72285156 199.49780273 454.49707031 C191.42256954 452.58391831 185.0505824 450.41992377 178.46264648 445.16113281 C177.59639648 444.58363281 176.73014648 444.00613281 175.83764648 443.41113281 C165.0079656 433.15143513 161.32608993 418.770156 157.96655273 404.71191406 C157.64924182 403.41194671 157.33117901 402.11216271 157.01243591 400.81254578 C156.17343929 397.38275255 155.344768 393.95054788 154.51837158 390.5177002 C153.73071529 387.25342483 152.93308879 383.9915912 152.13647461 380.72949219 C149.12835515 368.39389731 146.15608899 356.04965271 143.18969059 343.70396805 C134.55253025 307.76277426 125.73075901 271.87100098 116.80522203 236.00054461 C114.80851244 227.97548554 112.81481053 219.94967965 110.82128906 211.92382812 C110.5493336 210.82896217 110.5493336 210.82896217 110.27188408 209.71197772 C109.54371427 206.78041939 108.81555449 203.84885857 108.08742934 200.91728914 C107.01325454 196.59247438 105.93890784 192.26770238 104.86441618 187.94296634 C97.59929245 158.70105525 90.36731762 129.45105707 83.17657471 100.19076538 C81.33900841 92.71519198 79.49374928 85.2415687 77.64222717 77.7694397 C76.47354137 73.05074911 75.30837061 68.33119524 74.14395142 63.6114502 C73.61608958 61.47538886 73.0866697 59.33971181 72.55551147 57.20446777 C71.85108832 54.37202949 71.15224551 51.53827296 70.45483398 48.70410156 C70.24964645 47.88530014 70.04445892 47.06649872 69.83305359 46.22288513 C68.98070561 42.73648895 68.46264648 39.77342783 68.46264648 36.16113281 C67.47816528 36.16779465 66.49368408 36.17445648 65.47937012 36.18132019 C56.18129459 36.24225336 46.88325982 36.28716394 37.5850296 36.31656933 C32.80521799 36.33219538 28.02556814 36.35337757 23.24584961 36.38745117 C18.62929199 36.42015401 14.01288954 36.43800883 9.39622498 36.44576454 C7.63884541 36.45128848 5.8814739 36.46207531 4.12416077 36.47832298 C1.65412336 36.50024283 -0.81528068 36.50309372 -3.28540039 36.50170898 C-4.00469727 36.51249481 -4.72399414 36.52328064 -5.46508789 36.53439331 C-11.36464605 36.49883026 -16.94784814 35.32314868 -21.59594727 31.44238281 C-22.05098633 30.85457031 -22.50602539 30.26675781 -22.97485352 29.66113281 C-23.44793945 29.07332031 -23.92102539 28.48550781 -24.40844727 27.87988281 C-26.90496832 24.0789511 -26.83190446 20.579397 -26.53735352 16.16113281 C-24.42019638 9.6982321 -21.41231489 5.83819361 -15.53735352 2.41113281 C-10.37582501 0.26049593 -5.53861001 0.00894026 0 0 Z M124.46264648 120.16113281 C137.44269553 172.89258208 150.63504452 225.52718939 164.41162109 278.04614258 C165.12143509 280.75241593 165.83115997 283.45871262 166.54077148 286.16503906 C166.71274111 286.82089052 166.88471073 287.47674198 167.06189156 288.15246773 C169.2316439 296.43008428 171.38608016 304.71135608 173.50952148 313.00097656 C173.83711456 314.27982224 173.83711456 314.27982224 174.17132568 315.58450317 C175.13167709 319.33815883 176.08822307 323.09274226 177.03979492 326.84863281 C177.35464844 328.08484375 177.66950195 329.32105469 177.99389648 330.59472656 C178.38931641 332.15791626 178.38931641 332.15791626 178.79272461 333.75268555 C179.37618697 336.14751927 179.37618697 336.14751927 180.46264648 338.16113281 C204.33756818 338.33946559 228.21257144 338.50472174 252.08764648 338.66113281 C253.44655668 338.67005562 253.44655668 338.67005562 254.8329196 338.67915869 C317.4806402 339.08963175 380.12612352 339.25187558 442.77514648 339.22363281 C443.74457467 339.22320858 444.71400286 339.22278435 445.71280766 339.22234726 C470.29609724 339.21140414 494.8793733 339.19156399 519.46264648 339.16113281 C519.69752494 338.36071406 519.93240339 337.56029531 520.17439938 336.73562145 C522.42167385 329.07814536 524.67010917 321.42101121 526.91975158 313.76423043 C528.07542088 309.83070516 529.23068801 305.89706284 530.38493347 301.96311951 C535.43118946 284.76539626 540.4974309 267.57615439 545.76533699 250.44466591 C553.83130972 224.2127147 561.50081937 197.86609843 569.15797424 171.51260376 C571.19093818 164.51763127 573.23412733 157.52583341 575.29646301 150.53945923 C576.36610838 146.9153059 577.43076032 143.2896979 578.49453735 139.66381836 C578.96875123 138.05240611 579.44540932 136.4417109 579.9246521 134.83178711 C580.56361412 132.68430229 581.19393764 130.53447565 581.82202148 128.38378906 C582.16716797 127.215979 582.51231445 126.04816895 582.86791992 124.8449707 C583.74816848 122.20706933 583.74816848 122.20706933 582.46264648 120.16113281 C431.32264648 120.16113281 280.18264648 120.16113281 124.46264648 120.16113281 Z M211.46264648 491.16113281 C207.46761567 497.47035831 205.72166636 503.65870905 206.46264648 511.16113281 C208.54836325 520.22479905 212.98942179 526.68418047 220.46264648 532.16113281 C226.62417255 535.65821517 234.25465939 535.70497361 241.02514648 534.22363281 C247.82530876 532.10460208 252.98100431 527.96265116 256.87280273 522.00097656 C260.60391854 514.84632798 261.3813003 508.20672933 259.46264648 500.28613281 C257.07679119 492.93814657 252.06313814 487.22082754 245.21264648 483.66113281 C233.35705602 478.37020814 220.00893197 481.2056194 211.46264648 491.16113281 Z M450.46264648 492.16113281 C446.02900449 498.27090776 444.56398618 504.68073507 445.46264648 512.16113281 C447.50753861 520.28227584 450.62730478 526.93196548 457.70874023 531.66113281 C464.9888561 535.86901588 471.37243784 537.20936149 479.73217773 535.77050781 C487.01977 533.77950187 492.63792384 529.24634997 496.91577148 523.05957031 C500.44054023 516.23343366 500.5446836 508.84770608 498.83764648 501.45410156 C496.30762188 494.10121756 491.81145156 488.6766181 485.07202148 484.77832031 C472.72794052 479.22736567 459.5430327 482.01814821 450.46264648 492.16113281 Z " fill="#1872BB" transform="translate(446.537353515625,230.8388671875)"/>
<path d="M0 0 C0 0.66 0 1.32 0 2 C1.32 2.33 2.64 2.66 4 3 C-13.49 3 -30.98 3 -49 3 C-49 2.67 -49 2.34 -49 2 C-48.04222656 1.97494385 -47.08445312 1.9498877 -46.09765625 1.92407227 C-42.51176755 1.82922028 -38.92603789 1.72919627 -35.34033203 1.62768555 C-33.79447169 1.58462851 -32.24857269 1.54293574 -30.70263672 1.50268555 C-28.46830639 1.44426697 -26.23416556 1.38078733 -24 1.31640625 C-23.31945557 1.29969376 -22.63891113 1.28298126 -21.93774414 1.26576233 C-14.5603469 1.04284436 -7.3924004 -0.13200715 0 0 Z " fill="#2476BD" transform="translate(776,569)"/>
<path d="M0 0 C7.05843338 0.25208691 10.71459055 2.40338061 16 7 C15.34 7.66 14.68 8.32 14 9 C13.175 8.236875 12.35 7.47375 11.5 6.6875 C7.95583932 3.70294364 4.37889283 2.43446489 0 1 C0 0.67 0 0.34 0 0 Z " fill="#2770BC" transform="translate(924,713)"/>
<path d="M0 0 C0.33 0.99 0.66 1.98 1 3 C-1.97 5.475 -1.97 5.475 -5 8 C-5 5 -5 5 -2.5 2.3125 C-1.675 1.549375 -0.85 0.78625 0 0 Z " fill="#327ABB" transform="translate(725,776)"/>
</svg>
