<svg version="1.2" xmlns="http://www.w3.org/2000/svg" viewBox="0 0 711 677" width="711" height="677"><style>.a{fill:#0c7dcb}.b{fill:#d1dce7}.c{fill:#0d7cca}.d{fill:#0e7cca}.e{fill:#0e7dca}.f{fill:#0f7dca}.g{fill:#117ecb}.h{fill:#0f7cca}.i{fill:#0c7cca}.j{fill:#107cca}.k{fill:#f1f5f7}.l{fill:#277bca}.m{fill:#268bcf}.n{fill:#146ec5}.o{fill:#2886ce}.p{fill:#2c8acf}.q{fill:#2882cb}.r{fill:#0b71c7}.s{fill:#2683cd}.t{fill:#e2e7e9}.u{fill:#3387ce}.v{fill:#287fcd}.w{fill:#3083ce}.x{fill:#c5d8e4}.y{fill:#1c82cc}.z{fill:#2880cc}.A{fill:#0973c7}.B{fill:#1982cb}.C{fill:#2682cc}.D{fill:#3486cf}</style><path class="a" d="m565 6.9c1.3 0 1.3 0 2.7 0q4.2-0.1 8.5-0.1 3 0 6 0 6.3 0 12.5 0 8 0 16-0.1 6.2 0 12.4 0 2.9 0 5.9 0 4.1-0.1 8.2 0 1.2-0.1 2.5-0.1c4.1 0.1 6.6 0.5 9.9 3.1 3.4 3.6 3.8 5.5 3.7 10.5-0.3 3-1.4 4.8-3.2 7.1-5.5 3.6-12 3.1-18.4 3.1q-1.2 0-2.4 0-2.6 0-5.2 0-4.1 0-8.2 0-11.7 0.1-23.3 0.1-7.2 0-14.3 0.1-2.8 0-5.5 0-3.8 0-7.6 0.1-1.1-0.1-2.2-0.1c-5.1 0.1-8 1.4-12 4.6-4.3 5-5.6 10.7-7.2 17q-0.4 1.7-0.9 3.5c-3.7 14.4-7.2 28.8-10.7 43.3q-1.4 6-2.9 12-1.1 4.8-2.2 9.5-0.6 2.2-1.1 4.4c-2.6 10.5-2.6 10.5-4.1 21.2q1.5 0.6 3.1 1.3c16.3 6.9 30.6 15.6 43.6 27.7 1.9 1.7 3.9 3.3 5.9 4.9 23.6 20.3 35.7 55.8 38.2 86 2.3 32.1-7.5 67-28 92.1 1.5 3.4 3.4 5.6 6 8.2q1.2 1.2 2.5 2.5 1.3 1.3 2.7 2.7 1.5 1.5 2.9 2.9 3.1 3.1 6.3 6.2 4.9 4.9 9.8 9.9 11.4 11.3 22.8 22.7 10.4 10.3 20.8 20.7 4.9 4.9 9.9 9.8 3 3 6.1 6.1 2.1 2.1 4.1 4.1c9.4 9.4 17.1 18 17.5 31.8-0.3 9-2.7 15.3-8.8 22-6.5 5.7-14.1 6.8-22.5 6.7-10.5-0.9-17-6-24.2-13.3q-1.3-1.2-2.6-2.5c-3.6-3.5-7-7-10.2-10.8-4.9-5.6-10.2-10.8-15.5-16q-2.8-2.9-5.6-5.7-8.1-8-16.1-16-4.9-4.9-9.9-9.8-1.8-1.8-3.7-3.7-2.6-2.6-5.2-5.2-0.8-0.8-1.6-1.6c-3.5-3.5-3.5-3.5-3.5-5.7q-1.5-0.5-3-1c-1.6-1.6-1.6-1.6-3.2-3.5-4-4.7-8.1-9.2-12.4-13.6q-1.1-1.2-2.2-2.4c-3.9-4.3-3.9-4.3-9.3-5.7q-1.4 0.5-2.9 1.1-1.7 0.7-3.4 1.3-1.7 0.8-3.6 1.5c-19.4 8-38.3 9.6-59 9.2q-0.4 0.9-0.9 1.9c-4 8.8-8.7 14-17.8 17.4-3.8 1.3-7.4 2.1-11.4 2.6q0.9 1 1.8 2c10.3 12.1 17 25.6 16.5 41.8-1 10-3.5 19.9-9.3 28.2q-0.8 1.1-1.6 2.3c-8.4 11.6-20.2 19.1-34.1 22.2-15.3 2.3-30.3-0.1-43.5-8.4-13-9.7-22.3-22.9-24.8-39.2-1.2-17.1 2.5-31.4 13.9-44.6q1.5-1.7 3.1-3.3c-3.2-1.1-5.4-1.2-8.7-1.2-1.8 0-1.8 0-3.7 0q-1.9 0-4 0-2.1 0-4.2 0-5.7 0-11.4 0-5.9 0-11.9 0-11.3 0-22.6 0-12.8 0-25.7 0-26.4 0-52.8 0 0.7 0.8 1.5 1.7 0.9 1.1 1.9 2.2 0.9 1 1.9 2.1c10.2 12 13 26.4 11.9 41.7-1.6 14.7-9.2 28-20.6 37.4-8.5 5.8-18.3 11.2-28.7 11.9q-1.7 0.1-3.4 0.2c-16.3 0.6-29.6-4-41.9-14.6-11.6-11-18.5-25.3-19.1-41.5 0.6-16.7 8-30.3 19.5-42.1q-1.2 0.2-2.5 0.4c-9.5 1.4-22.5 2.3-31.5-1.5-2.7-2.6-4.9-5.1-5.1-9q0.1-1.1 0.1-2.3 0.1-1.1 0.1-2.3c1.3-3.7 3.5-5.7 6.9-7.4 4.4-0.7 8.8-0.6 13.3-0.6q2.1 0 4.1 0 5.7 0 11.3 0 6.1 0.1 12.2 0 10.6 0 21.1 0.1 15.3 0 30.6 0 24.8 0 49.6 0c1.4 0 1.4 0 2.9 0q3 0 6.1 0c1.4 0 1.4 0 3 0q1.4 0 3 0 16.5 0.1 33.1 0.1 1.5 0 3 0 24.7 0 49.4 0 15.2 0 30.5 0 10.4 0.1 20.8 0.1 6.1 0 12.1 0 5.5 0 11 0 2.9 0 5.9 0 1.7 0 3.5 0c1.5 0 1.5 0 3.1 0 2.8-0.4 3.7-1.1 5.5-3.3q-0.8-0.1-1.7-0.2c-8.7-1.4-16.4-5.1-24.3-8.9q-1.1-0.4-2.1-0.9c-10-4.6-18.6-10-26.9-17.1q-0.8-0.6-1.6-1.3c-8.2-7-15.3-14.8-21.4-23.7q0-1 0-2-2 0-4 0-46.4 0.1-92.9 0.1-5.7 0-11.4 0c-1.2 0-1.2 0-2.3 0q-18.4 0-36.9 0-18.9 0-37.8 0-11.7 0-23.3 0-9 0-18 0-3.6 0-7.3 0-5 0-10 0-1.5 0-2.9 0c-12.9-0.1-26-3.7-35.7-12.7-11.8-12.8-14.4-30-17.9-46.4q-0.8-3.5-1.6-7.1-2.1-9.6-4.1-19.2-1.3-5.9-2.5-11.7-3.5-16-6.9-31.9-4.5-21-9.1-42-1.5-7.1-3.1-14.2-1.5-6.8-3-13.6-0.9-4.3-1.8-8.5-0.7-2.9-1.3-5.7c-5.6-25.9-5.6-25.9 0.2-36.6 1.5-2.1 3-3.9 4.8-5.7 0.8-0.9 0.8-0.9 1.5-1.7 9.9-9.5 22.6-8.9 35.3-8.8q2.8 0 5.7 0 7.8 0 15.7 0.1 8.4 0 16.9 0 14.6 0 29.3 0 21.1 0.1 42.3 0.1 34.3 0.1 68.7 0.2 33.4 0.1 66.7 0.1 1 0 2.1 0 10.3 0 20.7 0 86.6 0.2 173.2 0.4c0.2-1.1 0.2-1.1 0.4-2.2 0.2-1.5 0.2-1.5 0.5-3q0.3-1.4 0.5-2.9c0.8-4.2 1.8-8.3 2.8-12.4q0.3-1.2 0.7-2.6 0.6-2.6 1.3-5.3 1-4 2-8.1 0.7-2.6 1.3-5.2 0.3-1.2 0.6-2.4c3.2-12.8 9.4-24.1 20.9-31 7.3-3.8 13.9-5.1 22-5.1zm-516.1 107.8c-1.8 10.6 3.2 24.1 5.5 34.5q0.7 3.1 1.4 6.3 1.8 8.6 3.7 17.1 2 8.8 3.9 17.7 0.8 3.5 1.6 7.1 0.4 1.8 0.8 3.6 1.2 5.4 2.4 10.8 4.6 21 9.1 42 0.9 4.1 1.7 8.3 0.3 1.3 0.6 2.7 0.6 2.6 1.1 5.2 1.6 7.5 3.2 15 1 4.6 1.9 9.2 0.5 2 0.9 4.1c2.8 13.9 2.8 13.9 10.8 25.3 7.1 4.6 13.1 5.5 21.3 5.4q1.5 0 3 0 4.9 0 9.9 0 3.6 0 7.1 0 9.7 0 19.4 0 9 0 18.1 0 18 0 36 0 17.4 0 34.9 0 1 0 2.1 0 5.4 0 10.8 0 44.8-0.1 89.6-0.1-0.3-1-0.6-2.1-0.4-1.3-0.8-2.7-0.4-1.4-0.8-2.7-1.2-3.9-2.1-7.9-0.3-1.3-0.7-2.7-0.3-1.3-0.6-2.7-0.3-1.3-0.6-2.7c-4.6-19.2-4.7-40.4 0.3-59.5q0.3-1.1 0.6-2.3c8.3-32.8 27.1-63.4 56.6-81.1 18.5-10.7 37.7-18.1 58.9-21.4q1.7-0.3 3.5-0.6c6.6-0.8 13.3-0.5 20-0.5q2.1 0 4.2 0 5.2 0.1 10.3 0.1c2.4-6.6 4.1-13.2 5.7-20.1q0.4-1.4 0.7-2.9 0.8-3.5 1.6-7-86.2-0.3-172.5-0.4-10.1 0-20.3-0.1-1 0-2.1 0-32.8 0-65.6-0.1-34.7-0.1-69.4-0.2-20.8 0-41.6-0.1-14.3 0-28.5 0-8.2 0-16.5-0.1-7.5 0-15 0-2.7 0-5.5 0-3.7-0.1-7.4 0c-1-0.1-1-0.1-2.1-0.1-5.2 0.1-7.4 1.6-10.5 5.7zm514.2 265.4c-1.2 1.1-1.2 1.1-2.5 2.2-0.9 0.9-0.9 0.9-1.9 1.8 4.6 5.6 9.6 10.7 14.7 15.8 1.3 1.3 1.3 1.3 2.6 2.6q3.5 3.5 7 7 3.7 3.7 7.4 7.4 10.1 10.1 20.3 20.2 9.3 9.3 18.6 18.6 3.6 3.7 7.3 7.3 4.1 4.1 8.2 8.2 1.1 1.1 2.4 2.4c4.1 4.1 8.1 8.4 11.9 12.9 2 2.3 3.9 4.1 6.5 5.6 3.7-0.1 5.4-0.3 8-3 0.2-6.9-3.4-10.1-8-15-4-4.1-8.2-8.2-12.3-12.3q-2.1-2.1-4.2-4.2-1.3-1.2-2.5-2.4c-2-2.1-2-2.1-3-4.1q-0.9 0-2 0-0.4-0.9-0.8-1.8c-1.2-2.2-2.3-3.6-4.1-5.3q-0.9-0.9-1.8-1.9-1-0.9-2-1.9-1-1.1-2.1-2.1-3.4-3.5-6.8-6.9-2.4-2.4-4.8-4.8-5-4.9-10-9.9-6.4-6.4-12.8-12.8-4.9-4.9-9.8-9.9-2.4-2.3-4.7-4.7-3.3-3.3-6.6-6.6-1-0.9-2-2c-5-5.1-5-5.1-10.2-0.4zm-415.5 72.6c-5.4 7.3-8.1 15.8-7.1 24.9 2.1 11 7.9 19.6 17 26 8.6 4.9 18.8 5.4 28.2 3 9.1-3.1 16.3-10 21.2-18.1 3.8-8.3 4-17.9 1.6-26.6-3.5-8.9-10.5-15.9-18.9-20.2-15.6-6.3-31.3-1.1-42 11zm225-1.8c-6.5 8.6-9 17.2-8 28 1.7 9.9 7 17 14.7 23.4 7.6 5.3 16.1 6.7 25.2 5.6 11.1-2.6 19.1-8.4 25.1-18 4.4-8.3 5.2-17 2.9-26-3.2-9.6-10.5-16.8-19.1-21.9-14.4-5.8-30-2-40.8 8.9z"/><path class="b" d="m550 188.6c22.6 19.1 37 46.1 39.8 75.5 2.1 30-6.2 60.9-25.6 84-18.5 21-42.5 36-70.5 39.9-17.3 0.9-35.5 1.7-52-4q-1.2-0.4-2.4-0.9c-17.7-6.1-32.5-14.9-45.6-28.2q-1.3-1.3-2.7-2.7c-19.4-20.4-29.6-49.4-29.3-77.4 0.8-25.9 9.4-50.9 26.1-70.8q1.3-1.5 2.6-3.1c16.3-18.8 39.3-31.5 63.5-36.9q1.3-0.3 2.6-0.6c33.2-6.8 67.7 3.9 93.5 25.2z"/><path class="c" d="m484.1 592.6q1.2 1.1 2.4 2.3c2.1-1 4-2 5.9-3.5 5.2-3.7 10.9-4.1 17.1-3.4 5.7 1.1 9.1 3.6 12.8 8.1 3.5 5.4 3.4 10.2 3.4 16.5q0 1.4 0 2.8-0.1 4.5-0.1 8.9 0 3-0.1 6 0 7.3-0.1 14.7c-5.2 0-10.5-0.1-16-0.1q0-1.7 0-3.4-0.2-6.3-0.3-12.6-0.1-2.8-0.1-5.5-0.1-3.9-0.2-7.8 0-1.3-0.1-2.5c-0.1-3.3-0.2-6-1.2-9.1q-2.4-0.2-4.8-0.2-1.3-0.1-2.6-0.1c-3.1 0.3-4.4 1.1-6.6 3.2-1.3 3.7-1.3 7.2-1.4 11q0 1.1 0 2.3-0.1 3.7-0.2 7.4-0.1 2.5-0.1 5-0.2 6.2-0.4 12.3c-5.2 0-10.5 0-16 0 0-2.5 0-5.1-0.1-7.7q0-3.7-0.1-7.4-0.1-2.6-0.1-5.1 0-3.7-0.1-7.4 0-1.2 0-2.3c-0.2-4.5-0.7-7.5-3.5-11.1-2.2-0.6-2.2-0.6-4.5-0.4q-1.2 0.1-2.4 0.1c-2.3 0.3-2.3 0.3-5.1 1.3-1.9 5-2.4 9.6-2.5 14.9q0 1.1 0 2.2-0.1 3.4-0.2 6.8 0 2.4-0.1 4.7-0.2 5.7-0.3 11.4c-5.3 0-10.5 0-16 0 0-18.5 0.1-37 0.1-56 5.3 0 10.5 0 16 0q0 2.5 0 5 0.7-0.5 1.5-1c8.3-5.5 17.9-7.2 26.1-0.3z"/><path class="d" d="m376.5 569.8c17.1 0.1 34.3 0.1 52 0.1 0 4.6 0 9.2 0 14-11.6 0-23.1 0-35 0 0 5.2 0 10.5 0 15.9 11.5 0.1 23.1 0.1 35 0.1 0 4.6 0 9.2 0 14-11.6 0-23.2 0-35.1-0.1 0.5 8 0.5 8 1 16 2.5 0 4.9 0 7.4 0q3.6 0 7.1 0 2.5 0 4.9 0 3.6 0 7.1 0 1.1 0 2.2 0 2.7 0 5.3 0.1c3.6 3.5 1 10 1 15-17.5-0.1-35-0.1-53-0.1 0-24.7 0.1-49.5 0.1-75z"/><path class="c" d="m583.5 592c6.8 5.9 10.6 11.8 11.3 20.7 0.4 9.9-1.1 17.3-6.5 25.6-5.9 5.6-12.8 8.6-20.9 8.7-5.4-0.7-8.5-1.6-13-5-0.3 8.2-0.6 16.5-1 25-5.3 0-10.5 0-16 0q-0.2-15.1-0.4-30.1-0.1-7-0.2-14-0.1-6.7-0.2-13.4 0-2.6 0-5.2-0.1-3.5-0.1-7.1-0.1-1.1-0.1-2.2 0-2.5 0.1-5c1-1 1-1 4.6-1.1q2.2 0 4.5 0 1.1 0 2.3 0 2.8 0.1 5.6 0.1 0.5 2 1 4 1.3-1 2.7-1.9c8.3-5.3 18.1-4 26.3 0.9zm-27 13c-4.5 5.9-3.9 13-3 20 1.5 3.7 3.9 5.4 7.3 7.4 4.5 1 8.2 0.2 12.4-1.6 3.7-2.9 5-5.7 5.6-10.4 0.2-6.5-0.6-11-4.8-16.2-5.3-4.2-12.3-2.6-17.5 0.8z"/><path class="e" d="m66.8 574.4c4.7 3.8 8.4 8.1 9.6 14.1q-2.8 1.3-5.7 2.6-1.6 0.7-3.2 1.4c-3.3 1.1-4.8 1.2-8.1 0q-0.9-1.1-1.9-2.3c-3.1-3.9-6.4-5.3-11.3-6-6.4-0.3-11.5 1.4-16.3 5.7-4.9 5.7-5.8 13.8-5.4 21.1 1.2 6.5 4.1 12.4 9.4 16.4 5.4 2.4 10.9 3.2 16.6 1.4 4.9-2.2 7.7-4.9 10.9-9.3 3.6 0.7 6.9 1.7 10.3 3.1q1.3 0.5 2.7 1.1 1 0.4 2 0.8c-0.3 6-2.9 9-7 13-8.5 7.5-17.8 8.7-28.9 8.3-10.8-0.7-17.9-5.5-25.1-13.3-8.5-10.4-10.2-20.9-9-34 2.5-11.5 8.6-19.8 18.2-26.3 13.3-7.9 29.7-6.6 42.2 2.2z"/><path class="d" d="m130.2 592.3c4.8 4.9 7.3 10.5 7.3 17.3q0 1.2 0 2.4 0 1.2 0 2.5 0 1.3 0 2.6 0 4.1 0 8.2-0.1 2.8-0.1 5.6 0 6.9 0 13.7c-5.3 0-10.6 0-16 0q-0.5-1.5-1-3-1.6 1-3.2 2c-6.6 3.3-14.5 3.3-21.6 1.1-4.7-2.3-7.7-5.1-9.7-10-1.2-4.7-0.8-8.8 1.6-13.1 4.4-5.9 10.7-8.2 17.7-9.6 3.6-0.5 7-0.5 10.6-0.5 1.8 0 1.8 0 3.7 0 1.5 0.1 1.5 0.1 2.9 0.1-1.7-5.6-1.7-5.6-5.1-10.1-4.2-1.3-7.8-1.4-11.9 0.1-2.6 2.8-2.6 2.8-4 6-4.3-0.4-8.6-0.7-13-1-1.2-3.5-0.6-4.9 0.9-8.2 3.2-5.5 7.4-8.6 13.5-10.4 9.8-1.7 19-0.9 27.4 4.3z"/><path class="f" d="m647.5 589.1c5.3 0 10.6 0 16 0 4.6 11.9 9.2 23.8 14 36 3.9-11.1 3.9-11.1 7.8-22.2q0.8-2.1 1.5-4.1 0.4-1.1 0.8-2.2c1.8-5.2 1.8-5.2 2.9-7.5 5.3 0 10.6 0 16 0-0.7 4.1-1.2 7-2.6 10.6q-0.5 1.3-1 2.6-0.6 1.4-1.1 2.8-0.6 1.5-1.2 3-1.2 3-2.4 6.1-1.9 4.6-3.7 9.2-3.5 8.9-7 17.7-0.6 1.4-1.2 2.8-1.6 4-3.2 7.9c-0.5 1.1-0.5 1.1-0.9 2.3-2.2 5.3-4.6 9.4-9.3 12.8-5.1 1.7-10.1 1.8-15.5 1.2q-1.9-1-4-2c1.5-6 1.5-6 3.1-12q1.6 0 3.3 0c3.6 0.2 3.6 0.2 6.7-1 1.9-2.8 2.7-5.6 3-9-1.1-4.6-3.1-8.7-5.1-13q-0.9-1.8-1.7-3.7-1.7-3.8-3.5-7.5-3.3-7.3-6.5-14.6-1.5-3.3-3-6.6-0.6-1.4-1.3-2.9-0.6-1.3-1.2-2.6-0.3-1.1-0.7-2.1 0.5-1 1-2z"/><path class="d" d="m324 589.8c4.2 2.4 7 4.9 9.4 9 0.9 3.4 0.9 3.4 1 6-8.9 2.6-8.9 2.6-13 1q-0.9-1-1.9-2c-2.7-2.6-4.3-2.9-8.1-3-3.2 0.8-3.2 0.8-6 2q0.5 2.4 1 5 0.9 0.2 1.8 0.4 3.9 1.2 7.9 2.3 1.3 0.4 2.7 0.8c6.6 1.9 13.1 4.1 16.6 10.5 0.9 5 0.8 10.3-1.5 14.9-4.7 6-9.9 9.1-17.5 10.1-8.1 0.7-15-0.5-21.9-4.9-2.2-2.3-3.7-4.2-5.1-7.2q0-2.4 0-5c4.3-0.9 8.6-1.9 13-3q1.5 2.5 3 5.1c3.2 2.3 6.1 2.3 10 2 2.4-0.6 2.4-0.6 4-2 0.8-2.6 0.8-2.6 1-5-1.8-0.7-1.8-0.7-3.7-1.3q-1.2-0.4-2.4-0.8-3.1-1-6.1-1.8c-7.1-2-11.7-3.8-16.8-9.2-1.9-3.9-1.4-8.7-1-13 2.6-5.1 6.1-8.5 11.3-11 6.5-2.2 15.7-1.9 22.3 0.1z"/><path class="g" d="m609.5 576.1c5.3 0 10.6 0 16 0 0 4.3 0 8.6 0 13 4.3 0 8.6 0 13 0 0 4.6 0 9.2 0 14-4 0-7.9 0-12 0q-0.1 6.7-0.1 13.3-0.1 1.9-0.1 3.9 0 1.8 0 3.7 0 1.6-0.1 3.4c0 2.8 0 2.8 2.3 4.7 2.6 0.2 2.6 0.2 5.6 0.1 2.7-0.1 2.7-0.1 5.4-0.1 1 3.9 1.9 7.9 3 12-5.7 3.7-11.4 3.7-18 3-6-1.8-9.7-5-13-10.1-2.7-6.7-2.5-13.7-2.6-20.9q-0.1-1.9-0.2-3.8-0.1-4.6-0.2-9.2c-2.3-0.1-4.6-0.1-7-0.1 0-4.6 0-9.2 0-14 2.6 0.1 5.3 0.1 8 0.1 0-4.3 0-8.6 0-13z"/><path class="h" d="m195.4 575.7c5.3 0 10.6 0 16.1 0-0.1 4.3-0.1 8.6-0.1 13 4.3 0 8.6 0 13 0 1.4 2.6 1.2 4.6 1.2 7.5 0 1.5 0 1.5 0 3.1-0.2 2.4-0.2 2.4-1.2 3.4q-3.3 0.1-6.5 0c-1.8 0-1.8 0-3.7 0q-1.3 0-2.8 0 0.2 6.1 0.5 12.3 0 1.7 0.1 3.5 0 1.7 0.1 3.4 0 1.5 0.1 3.1c0.1 2.8 0.1 2.8 1.2 5.7 2.5 1.2 4.3 1.1 7.1 1q1.4 0 2.8 0 1 0 2.1 0 0.8 2.1 1.5 4.2 0.4 1.2 0.8 2.4c0.7 2.4 0.7 2.4 0.7 6.4-6.2 2.7-14 3.5-20.4 1-5.2-3.1-9.7-7.2-11.6-13.1q-0.2-3.4-0.3-6.8 0-1-0.1-2-0.1-3.2-0.2-6.3 0-2.2-0.1-4.3-0.1-5.3-0.3-10.5c-2.3 0-4.6 0-7-0.1 0-4.6 0-9.2 0-13.9 3.5-0.5 3.5-0.5 7-1 0-4 0-8 0-12z"/><path class="i" d="m182.4 587.6c1 1 1 1 1.1 4.4q0 2.1 0 4.2 0 1.1 0 2.2 0 2.6-0.1 5.2-1 0.1-2 0.1c-5.7 0.4-9.6 1-14 4.9-2.1 4.1-2.3 7.7-2.4 12.3q0 1-0.1 2.1-0.1 3.2-0.1 6.4-0.1 2.2-0.2 4.4-0.1 5.4-0.2 10.8c-5.3 0-10.6 0-16 0 0-18.5 0-37 0-56 5.3 0 10.6 0 16 0q0.5 2.5 1 5 1.1-0.9 2.2-1.8c5-3.8 8.6-4.5 14.8-4.2z"/><path class="i" d="m264.4 588.7c5.3 0 10.6 0 16.1 0-0.1 18.5-0.1 37-0.1 56-5.3 0-10.6 0-16 0 0-18.5 0-36.9 0-56z"/><path class="j" d="m275.5 565.7c3.7 2.1 4.8 3.4 6 7.5-0.1 4.3-1 5.6-4 8.5-2.8 1.4-5 1.2-8 1-3.4-1.2-4-1.9-6-5-0.7-6.1-0.7-6.1 1.8-9.3 3.6-2.7 5.7-3.1 10.2-2.7z"/><path class="k" d="m115.1 621.5c1.7 0 1.7 0 3.6 0q1.3 0.1 2.7 0.1c0.3 5.6 0.3 5.6-2.4 8.8-3.6 3-5.4 3.3-10.1 3.4-1.4 0-1.4 0-2.9 0.1-2.6-0.3-2.6-0.3-4.5-1.7-1.1-1.6-1.1-1.6-1.1-4.1 1.2-3 2.3-3.9 5-5.5 3.4-1.2 6.1-1.1 9.7-1.1z"/><path class="l" d="m267.6 429.7q2.3 0 4.6 0 6 0 12 0 6.2 0 12.3 0.1 12.1 0 24.1 0 0 0.5 0 1c-8.4 0.5-8.4 0.5-17 1q0 0.5 0 1-11.3 0.1-22.5 0.1-5.3 0-10.5 0-6 0.1-12 0.1-1.9 0-3.8 0c-1.8 0-1.8 0-3.5 0-1.6 0-1.6 0-3.1 0-2.6-0.2-2.6-0.2-5.6-2.2 8.3-1.2 16.6-1.2 25-1.1z"/><path class="m" d="m274.6 429.8c15.2 0 30.4 0 46 0q0 0.5 0 1c-8.4 0.5-8.4 0.5-17 1q0 0.5 0 1-2.7 0-5.4 0.1-1.5 0-3.1 0c-2.5-0.1-2.5-0.1-3.5-1.1q-4.3-0.4-8.6-0.6-1.2 0-2.4-0.1-3-0.2-6-0.3 0-0.5 0-1z"/><path class="n" d="m335.6 429.8q-0.5 1.5-1 3c-11.7 0.3-23.3-0.4-35-1q0-0.5 0-1c12-0.6 24-1.1 36-1z"/><path class="o" d="m213.6 429.7c8.6 0 17.2 0 26 0.1q0 1.4 0 2.9c-4.6 0-9.2 0-14 0q0-0.9 0-2c-4 0-7.9 0-12 0q0-0.5 0-1z"/><path class="p" d="m112.6 429.6c8.2 0 16.5 0 25 0.1-1 0.4-1 0.4-2 1q-0.5 0.9-1 1.9c-4 0-7.9 0-12 0q0-0.5 0-1c-3.3-0.3-6.6-0.6-10-1q0-0.5 0-1z"/><path class="q" d="m537.5 589c5.3 0 10.6 0 16 0q-0.5 3-1 6-0.5-2-1-4c-5 0-9.9 0-15 0q0.5-1 1-2z"/><path class="r" d="m118.1 619.4c1.2 0 1.2 0 2.4 0 1.9 0.2 1.9 0.2 2.9 1.2-0.1 1.8-0.1 1.8-0.3 4-0.1 1.1-0.1 1.1-0.3 2.2q-0.2 0.9-0.4 1.8c-1 0.5-1 0.5-2 1 0.3-2.7 0.6-5.3 1-8-4 0-7.9 0-12 0 3.7-1.9 4.8-2.3 8.7-2.2z"/><path class="s" d="m382.9 175q1.4 1 3 2c-1.2 0.8-1.2 0.8-2.4 1.7-2.7 2.1-2.7 2.1-4.3 4.5q-0.6 0.9-1.3 1.8-1.5 0-3 0c1.6-4.3 4.7-6.9 8-10z"/><path class="t" d="m473.9 162.1q3.3-0.1 6.6-0.1 1.9 0 3.7 0c3.4 0.1 6.4 0.4 9.7 1.1q-0.5 1-1 2c-4.6 0-9.2 0-14 0q0-0.5 0-1-2.5-0.5-5-1 0-0.5 0-1z"/><path class="u" d="m567.7 425.1c3.4 1.4 5.6 3.4 8.2 6.1q1.1 1.1 2.1 2.2c0.8 0.8 0.8 0.8 1.6 1.7q-0.9 1-2 2-2.5-2.5-4.9-4.9-1.4-1.4-2.9-2.7c-2.1-2.4-2.1-2.4-2.1-4.4z"/><path class="v" d="m652.6 460.1c3.3 1.4 5.4 3.1 7.8 5.7 0.9 0.9 0.9 0.9 1.8 1.9 0.7 0.7 0.7 0.7 1.4 1.4q-1 1-2 2-2.2-2.1-4.5-4.3-1.2-1.2-2.5-2.5c-2-2.2-2-2.2-2-4.2z"/><path class="w" d="m640.6 448.1q1 0 2 0 0 1 0 2 1 0 2 0 0 1 0 2 0.9 0.4 1.9 0.8c2.4 1.4 3.6 2.9 5.1 5.2-3 0-3 0-5.6-2.3-2.4-2.7-2.4-2.7-2.4-4.7q-0.9 0-2 0-0.4-1.4-1-3z"/><path class="x" d="m465.9 162.1c5.3 0.3 10.6 0.6 16 1q0 0.5 0 1c-7.9 0.5-7.9 0.5-16 1q0-1.5 0-3z"/><path class="y" d="m610.5 581.1q0.5 0 1 0c0 2.9 0 5.9 0 9-3.3 1.6-6.4 0.5-10-0.1q0-0.4 0-1c2.6 0.1 5.3 0.1 8 0.1q0-1.5-0.1-2.9c0.1-3.1 0.1-3.1 1.1-5.1z"/><path class="z" d="m629.6 488.1q1 0 2 0 0 1 0 2 0.9 0.3 1.8 0.7c2.8 1.6 4.3 3.7 6.2 6.3-3 0-3 0-4.8-1.7q-0.9-1.1-1.9-2.2-0.9-1.1-1.9-2.2c-1.4-1.9-1.4-1.9-1.4-2.9z"/><path class="A" d="m579.5 616q0.5 0 1 0 0.1 2.2 0.2 4.3c0 1.2 0 1.2 0.1 2.5-0.4 2.7-1.2 3.5-3.3 5.2q0.2-2.1 0.4-4.3 0.1-1.2 0.3-2.4c0.3-2.3 0.3-2.3 1.3-5.3z"/><path class="B" d="m684.5 611.1q0.5 1 1 2c-0.9 2.6-0.9 2.6-2 5q-0.5-1-1-2c0.9-2.6 0.9-2.6 2-5zm-4 5q1.5 2 3 4-2 0.5-4 1 0.5-2.4 1-5z"/><path class="u" d="m647.6 475.1c3.4 1.4 5 3 7 6-3 0-3 0-5.2-1.8-1.8-2.2-1.8-2.2-1.8-4.2z"/><path class="C" d="m211.6 431.7c3.4 1.4 5 3 7 6-3 0-3 0-5.2-1.9-1.8-2.1-1.8-2.1-1.8-4.1z"/><path class="D" d="m570.9 178.1c3.4 1.4 5 3 7 6.1-3-0.1-3-0.1-5.2-1.9-1.8-2.2-1.8-2.2-1.8-4.2z"/></svg>