<?xml version="1.0" encoding="UTF-8"?>
<svg version="1.1" xmlns="http://www.w3.org/2000/svg" width="420" height="574">
<path d="M0 0 C4.14240444 3.19947251 7.73483514 7.04135282 11.42106247 10.74443436 C12.37718766 11.69784624 13.3337371 12.65083284 14.29067612 13.60342789 C16.875497 16.1791679 19.45399625 18.76114916 22.03109884 21.34460878 C24.73068884 24.0492752 27.43516964 26.74904412 30.13886642 29.44960403 C34.67322061 33.98032586 39.20335466 38.51523517 43.73112106 43.05253983 C48.97045179 48.30277997 54.21698412 53.54574092 59.46726406 58.78503001 C63.97633638 63.28503994 68.48151666 67.78891851 72.98343861 72.2960819 C75.67189244 74.98765784 78.36168914 77.67785434 81.05500031 80.36457062 C83.58267399 82.8864858 86.1054409 85.41320703 88.62443352 87.94379234 C89.99512328 89.31840527 91.37076539 90.68807432 92.74651718 92.057621 C93.95777016 93.27733345 93.95777016 93.27733345 95.19349289 94.52168655 C96.25477056 95.5840953 96.25477056 95.5840953 97.33748817 96.66796684 C98.83561325 98.4177742 98.83561325 98.4177742 98.83561325 100.4177742 C99.49561325 100.4177742 100.15561325 100.4177742 100.83561325 100.4177742 C102.32136059 101.92464161 102.32136059 101.92464161 104.03249741 103.98553848 C107.41623537 107.962026 110.96923605 111.66947858 114.68546677 115.33354568 C115.33034042 115.97374649 115.97521408 116.6139473 116.63962936 117.27354813 C118.02549815 118.64900018 119.41247114 120.02334041 120.80045891 121.39665413 C123.00275843 123.57672084 125.2008903 125.76091066 127.39785385 127.94635391 C133.63968131 134.15478307 139.8856659 140.35898101 146.14200974 146.55278397 C149.98209646 150.35507001 153.81470289 154.16476239 157.64272499 157.97919273 C159.09469801 159.42315549 160.54943401 160.86434582 162.00706291 162.30259895 C173.76774199 173.90958696 184.79600397 185.23998787 185.9332695 202.68730545 C185.45085821 216.17552527 180.54629124 227.38352802 171.35905075 237.0896492 C161.7397397 245.96443153 151.42749607 250.00440045 138.46061325 249.8552742 C137.07470993 249.84391434 137.07470993 249.84391434 135.66080856 249.83232498 C120.26699065 249.4606378 109.89683703 241.9760466 99.37833786 231.30107498 C98.58698441 230.51015961 97.79563095 229.71924423 96.98029709 228.90436172 C94.39233295 226.31432424 91.81513 223.71385807 89.237957 221.1130867 C87.43543771 219.30496631 85.63225056 217.49751149 83.82842636 215.6906929 C79.58384982 211.43587129 75.34601713 207.17444636 71.11145169 202.90966976 C66.28540895 198.0499549 61.45072214 193.19887816 56.61533344 188.3484652 C46.67919404 178.38106949 36.75381823 168.40301372 26.83561325 158.4177742 C26.83539588 159.16400706 26.83517851 159.91023993 26.83495456 160.67908591 C26.82143212 204.92898249 26.78191868 249.17879065 26.70875763 293.42863087 C26.69999111 298.744429 26.69144126 304.06022746 26.68302536 309.37602615 C26.68050677 310.96341347 26.68050677 310.96341347 26.67793729 312.58286921 C26.65128383 329.70715366 26.64217339 346.83140463 26.63957182 363.95570769 C26.63650995 381.53316011 26.6145361 399.1105159 26.57508868 416.68792468 C26.55135053 427.52992054 26.54227844 438.37172339 26.55210014 449.21374164 C26.55742508 456.65341239 26.54434273 464.09291056 26.51695035 471.53253218 C26.50169604 475.82175717 26.49439973 480.11059575 26.50901604 484.39983177 C26.52224298 488.33417087 26.51212655 492.26776388 26.48417553 496.20201955 C26.47810446 497.61811241 26.48027984 499.03427248 26.49198399 500.45032998 C26.60174831 514.86960215 22.47562318 526.57699111 12.83561325 537.4177742 C2.49705869 547.46437622 -9.773704 552.44920253 -24.16438675 552.4177742 C-39.14489925 550.91817697 -50.61005704 544.48874755 -60.2073555 532.9646492 C-66.642846 524.2376301 -70.27603976 515.16779718 -70.30305195 504.28960323 C-70.30852639 503.05000935 -70.31400084 501.81041547 -70.31964117 500.53325814 C-70.3207173 499.16059099 -70.32170201 497.78792377 -70.32260513 496.4152565 C-70.32717207 494.95488532 -70.33217229 493.49451544 -70.3375687 492.03414708 C-70.3511442 488.02069112 -70.35856647 484.00724363 -70.36499536 479.99377072 C-70.37300187 475.66592805 -70.38669879 471.33810298 -70.39970779 467.01027298 C-70.42146696 459.51184198 -70.43961351 452.01340919 -70.45531273 444.51496315 C-70.47801644 433.6734424 -70.50615859 422.83194115 -70.53563201 411.99043695 C-70.58330176 394.40120185 -70.62656762 376.81195879 -70.6670723 359.22270584 C-70.70643035 342.13545995 -70.74785733 325.04822114 -70.7920723 307.96098709 C-70.79479657 306.90789127 -70.79752084 305.85479545 -70.80032767 304.76978763 C-70.8140072 299.48676356 -70.82772746 294.2037396 -70.84146798 288.92071569 C-70.95542307 245.08641663 -71.06223457 201.25210225 -71.16438675 157.4177742 C-71.58439516 157.84423516 -72.00440357 158.27069613 -72.43713951 158.71008015 C-82.70284407 169.13101339 -92.98839241 179.53206824 -103.29573631 189.91180897 C-108.28004234 194.93206479 -113.25766327 199.95861471 -118.21956253 205.00102615 C-123.01446114 209.87368915 -127.82792244 214.72738436 -132.65281677 219.57034492 C-134.48404307 221.41443436 -136.30913203 223.26464078 -138.12770844 225.12120628 C-161.85208398 249.32094169 -161.85208398 249.32094169 -180.06966019 249.71001053 C-188.81490687 249.77670067 -196.2594485 249.60436171 -204.16438675 245.4177742 C-204.86305862 245.0671492 -205.5617305 244.7165242 -206.28157425 244.3552742 C-218.45560085 237.53402972 -225.24067636 226.60492654 -229.10188675 213.4802742 C-231.49913045 202.47017889 -229.62977507 192.21912381 -224.16438675 182.4177742 C-220.43025605 177.01061688 -216.2704335 172.23777573 -211.60556412 167.62517166 C-210.97242591 166.99103017 -210.33928771 166.35688869 -209.6869635 165.70353079 C-207.58462331 163.60024533 -205.47525354 161.50416061 -203.36580276 159.40800858 C-201.84876349 157.89317275 -200.3321737 156.37788667 -198.81599808 154.86218643 C-195.55977432 151.60888788 -192.30042869 148.35876179 -189.0385952 145.1110878 C-183.8769508 139.97177805 -178.72246648 134.82532678 -173.56891251 129.67790604 C-165.41432165 121.53468227 -157.25507069 113.39614633 -149.09376329 105.25965452 C-134.48340998 90.69365326 -119.87862456 76.1220746 -105.27909225 61.54522753 C-100.15888495 56.43340742 -95.03588276 51.32440989 -89.91058552 46.21769333 C-86.71838856 43.03617147 -83.52824772 39.85259373 -80.33860397 36.66851234 C-78.86372191 35.19708806 -77.38796944 33.72653562 -75.91126442 32.25694084 C-66.37115684 22.88369719 -66.37115684 22.88369719 -57.56145 12.83539963 C-55.92650004 11.17638625 -54.28518779 10.34893477 -52.16438675 9.4177742 C-52.16438675 8.7577742 -52.16438675 8.0977742 -52.16438675 7.4177742 C-51.50438675 7.4177742 -50.84438675 7.4177742 -50.16438675 7.4177742 C-49.8086055 6.53798904 -49.8086055 6.53798904 -49.44563675 5.64043045 C-46.23794607 0.07586948 -39.28039225 -3.48210525 -33.35188675 -5.5197258 C-21.53009021 -8.48443966 -10.12688197 -6.85233517 0 0 Z " fill="#0079D7" transform="translate(233.16438674926758,17.582225799560547)"/>
</svg>
