<?xml version="1.0" encoding="UTF-8"?>
<svg version="1.1" xmlns="http://www.w3.org/2000/svg" width="800" height="800">
<path d="M0 0 C1.17123917 -0.00315216 2.34247833 -0.00630432 3.54920959 -0.009552 C4.80970627 -0.00752777 6.07020294 -0.00550354 7.36889648 -0.00341797 C8.66568832 -0.00437469 9.96248016 -0.00533142 11.29856873 -0.00631714 C14.03971552 -0.00778942 16.78082966 -0.00565429 19.52197266 -0.00097656 C23.03481164 0.0047261 26.5475743 0.00143538 30.0604105 -0.00454903 C33.41324529 -0.00903095 36.76605953 -0.0058934 40.11889648 -0.00341797 C41.38141739 -0.0054422 42.64393829 -0.00746643 43.94471741 -0.009552 C45.11280441 -0.00639984 46.28089142 -0.00324768 47.484375 0 C49.02847801 0.00119339 49.02847801 0.00119339 50.60377502 0.00241089 C53.17749023 0.12939453 53.17749023 0.12939453 56.17749023 1.12939453 C57.66951434 1.34133278 59.16669698 1.51799565 60.66577148 1.67236328 C94.95793556 5.43444904 128.53209486 13.20126474 160.17749023 27.12939453 C161.11753906 27.53915527 162.05758789 27.94891602 163.02612305 28.37109375 C181.10175407 36.29791926 198.79043901 45.06813495 215.17749023 56.12939453 C215.88260742 56.60135254 216.58772461 57.07331055 217.31420898 57.55957031 C226.55335683 63.75228625 235.64036981 69.9851727 244.17749023 77.12939453 C244.99475586 77.77521484 245.81202148 78.42103516 246.65405273 79.08642578 C262.61595516 91.77590279 278.15689114 106.41909422 291.17749023 122.12939453 C291.87100586 122.95697266 292.56452148 123.78455078 293.27905273 124.63720703 C306.18120987 140.19960275 317.9004295 156.71835803 328.17749023 174.12939453 C329.18489258 175.81935547 329.18489258 175.81935547 330.21264648 177.54345703 C355.90877389 221.44543838 372.66662817 272.33291037 375.96655273 323.30004883 C375.98747065 325.14652636 375.98747065 325.14652636 377.17749023 326.12939453 C377.27108213 327.84804862 377.29493634 329.57055197 377.29101562 331.29174805 C377.29094009 332.39281387 377.29086456 333.4938797 377.29078674 334.62831116 C377.28562546 335.82620773 377.28046417 337.02410431 377.27514648 338.25830078 C377.27373154 339.4776683 377.27231659 340.69703583 377.27085876 341.95335388 C377.2652399 345.86622523 377.2526842 349.77904034 377.23999023 353.69189453 C377.23497766 356.337076 377.23041434 358.98225836 377.22631836 361.62744141 C377.21526435 368.12811179 377.19850787 374.62874914 377.17749023 381.12939453 C376.51749023 381.12939453 375.85749023 381.12939453 375.17749023 381.12939453 C375.22752197 381.98984375 375.22752197 381.98984375 375.27856445 382.86767578 C375.57164291 392.46463006 373.92487108 401.70813764 372.30249023 411.12939453 C372.15020966 412.02323853 371.99792908 412.91708252 371.84103394 413.8380127 C367.38353191 439.67506298 360.38358821 464.94799003 350.17749023 489.12939453 C349.86634277 489.88349609 349.55519531 490.63759766 349.23461914 491.41455078 C338.35844135 517.65691663 323.13851287 542.41096054 306.17749023 565.12939453 C305.78803223 565.65178711 305.39857422 566.17417969 304.99731445 566.71240234 C300.08782384 573.27268238 295.04682469 579.59498814 289.47827148 585.61767578 C287.61631764 587.65033508 285.81399395 589.71179534 284.01733398 591.80126953 C273.48032288 603.87155174 261.89694612 615.37532499 249.17749023 625.12939453 C248.078216 626.02556412 246.98207601 626.92558658 245.88842773 627.82861328 C230.58135155 640.41563853 214.41328091 651.35411877 197.12329102 661.02197266 C194.69842884 662.40204478 192.34569684 663.88495629 189.98999023 665.37939453 C184.63075878 668.63825935 178.87386458 670.98688669 173.10717773 673.41845703 C170.44243753 674.5505254 167.86142326 675.77814841 165.28686523 677.10205078 C143.83597088 687.97078181 119.59431974 694.24359242 96.17749023 699.12939453 C94.43397485 699.50427458 92.69048489 699.87927282 90.94702148 700.25439453 C69.67111536 704.75233462 48.38729624 706.31662567 26.66894531 706.25976562 C24.24529753 706.25440627 21.82183559 706.25975137 19.39819336 706.26611328 C-17.11203387 706.28598694 -52.83939875 700.18442491 -87.57250977 689.00439453 C-88.21459381 688.79860779 -88.85667786 688.59282104 -89.51821899 688.38079834 C-97.54991249 685.785164 -105.20566879 682.75734407 -112.82250977 679.12939453 C-114.19520466 678.5200087 -115.5698084 677.91487555 -116.94750977 677.31689453 C-121.4570062 675.31901636 -125.92109074 673.22657969 -130.38500977 671.12939453 C-131.09351074 670.79705811 -131.80201172 670.46472168 -132.53198242 670.12231445 C-133.22727051 669.79465088 -133.92255859 669.4669873 -134.63891602 669.12939453 C-135.33662109 668.80841797 -136.03432617 668.48744141 -136.75317383 668.15673828 C-138.82250977 667.12939453 -138.82250977 667.12939453 -140.7746582 665.88330078 C-143.64135441 664.12494514 -145.67454059 663.0066409 -149.08740234 663.37158203 C-151.78267718 664.14266618 -154.34096694 665.09697084 -156.94750977 666.12939453 C-159.08123664 666.90748163 -161.21678927 667.6805731 -163.35375977 668.44970703 C-164.53325195 668.88057617 -165.71274414 669.31144531 -166.92797852 669.75537109 C-173.54730319 672.12677096 -180.28194667 674.15564722 -186.99523926 676.24160767 C-200.84018321 680.54812335 -214.61320962 685.03325948 -228.34863281 689.67602539 C-237.23374181 692.65680081 -246.17474999 695.37216937 -255.20288086 697.88647461 C-259.07293257 698.97412944 -262.84199538 700.05406081 -266.52172852 701.68408203 C-270.01559103 703.21393899 -273.53367256 704.2970357 -277.19750977 705.31689453 C-292.21512867 709.62044594 -307.05958818 714.5221701 -321.88500977 719.44189453 C-322.92709595 719.78692017 -322.92709595 719.78692017 -323.99023438 720.13891602 C-327.40346886 721.28028557 -330.77402 722.48766904 -334.13110352 723.78564453 C-337.39546461 724.97394106 -339.41799135 725.44856813 -342.82250977 725.12939453 C-342.82250977 723.80939453 -342.82250977 722.48939453 -342.82250977 721.12939453 C-342.16250977 721.12939453 -341.50250977 721.12939453 -340.82250977 721.12939453 C-340.7094751 720.29682129 -340.59644043 719.46424805 -340.47998047 718.60644531 C-339.75322872 714.76299995 -338.59617723 711.17578046 -337.30297852 707.49658203 C-337.04861023 706.75991806 -336.79424194 706.02325409 -336.53216553 705.26426697 C-335.98283345 703.67455676 -335.43142245 702.0855637 -334.87814331 700.4972229 C-333.38604948 696.21270486 -331.90977036 691.92273608 -330.43188477 687.63330078 C-330.12858749 686.7541954 -329.82529022 685.87509003 -329.51280212 684.96934509 C-326.53137945 676.31457228 -323.63874821 667.63124918 -320.76000977 658.94189453 C-316.61716357 646.44584567 -312.37799183 633.98643387 -308.08029175 621.5428772 C-303.49192072 608.24070489 -299.12106827 594.87235985 -294.83032227 581.47143555 C-292.58004449 574.45502331 -290.28134499 567.47190143 -287.72045898 560.56103516 C-286.29093715 556.68989935 -284.95531926 552.7888824 -283.63500977 548.87939453 C-283.37526367 548.12916016 -283.11551758 547.37892578 -282.84790039 546.60595703 C-279.82352209 538.3259751 -279.82352209 538.3259751 -281.19360352 529.94580078 C-281.87551758 528.87201172 -282.55743164 527.79822266 -283.26000977 526.69189453 C-284.00996891 525.46769163 -284.75592193 524.24102744 -285.49829102 523.01220703 C-286.07764404 522.0613623 -286.07764404 522.0613623 -286.66870117 521.09130859 C-288.58703006 517.82941884 -290.27212968 514.4584182 -291.94750977 511.06689453 C-292.44806885 510.05369141 -292.44806885 510.05369141 -292.95874023 509.02001953 C-296.02375397 502.77239684 -299.0075716 496.49424166 -301.82250977 490.12939453 C-302.09949707 489.50516602 -302.37648438 488.8809375 -302.66186523 488.23779297 C-307.37938783 477.50825746 -310.99148791 466.63001153 -314.18334961 455.35839844 C-314.72286396 453.4768988 -315.29449545 451.60465266 -315.87329102 449.73486328 C-322.51631163 428.00152424 -325.93470084 405.72594774 -327.82250977 383.12939453 C-327.91677246 382.08920166 -328.01103516 381.04900879 -328.1081543 379.97729492 C-328.83779238 371.46637344 -329.06525773 362.98196122 -329.07250977 354.44189453 C-329.07352188 353.35281296 -329.07352188 353.35281296 -329.07455444 352.24172974 C-329.03916671 327.84965648 -326.92738873 303.76994843 -321.4621582 279.96289062 C-320.83573727 277.18798934 -320.26368158 274.40698413 -319.70532227 271.61767578 C-313.96573418 243.64785457 -303.10322057 216.3594496 -289.82250977 191.12939453 C-289.15683445 189.84309696 -288.49147163 188.55663762 -287.82641602 187.27001953 C-277.09259101 166.65426039 -264.08445403 146.6873835 -248.82250977 129.12939453 C-247.84581208 127.97175146 -246.8706639 126.81280002 -245.89672852 125.65283203 C-240.96317509 119.80162376 -235.98940663 114.11537179 -230.48266602 108.78955078 C-228.6040546 106.96661574 -228.6040546 106.96661574 -226.32250977 104.06689453 C-223.81414349 101.11956416 -221.19038219 98.74290484 -218.25219727 96.24267578 C-215.82699377 94.13329461 -213.47699849 91.96106593 -211.13061523 89.76513672 C-196.44967134 76.04247898 -180.12883617 63.38163508 -162.82250977 53.12939453 C-162.14784668 52.7265625 -161.47318359 52.32373047 -160.77807617 51.90869141 C-143.66368888 41.7185015 -126.07595109 33.08218643 -107.82250977 25.12939453 C-107.15896484 24.83790527 -106.49541992 24.54641602 -105.81176758 24.24609375 C-96.34696799 20.12609288 -86.70868616 17.24026375 -76.76782227 14.52392578 C-73.70699413 13.68690938 -70.7314505 12.7548432 -67.74829102 11.67626953 C-60.65368679 9.26855964 -53.22258597 8.01269863 -45.88500977 6.56689453 C-45.10648651 6.41154236 -44.32796326 6.25619019 -43.52584839 6.09613037 C-33.35604893 4.07247359 -23.26300383 2.294796 -12.92016602 1.41845703 C-10.00678639 1.23919768 -10.00678639 1.23919768 -7.99281311 0.61941528 C-5.28345189 0.00768364 -2.77827658 0.00214559 0 0 Z M-8.13500977 63.12939453 C-9.08240021 63.23854187 -10.02979065 63.34768921 -11.00588989 63.46014404 C-69.36316006 70.31062887 -121.3376443 94.90256971 -166.38500977 132.12158203 C-168.10531582 133.538629 -169.85911187 134.91548446 -171.63500977 136.26220703 C-172.35688477 136.87837891 -173.07875977 137.49455078 -173.82250977 138.12939453 C-173.82250977 138.78939453 -173.82250977 139.44939453 -173.82250977 140.12939453 C-174.39356445 140.37431641 -174.96461914 140.61923828 -175.55297852 140.87158203 C-182.1254212 144.51414063 -187.24099261 151.45897083 -192.08813477 157.11767578 C-193.90028053 159.21960161 -195.76637091 161.26512907 -197.63500977 163.31689453 C-206.70399199 173.53915773 -214.44368676 184.65260625 -221.82250977 196.12939453 C-222.5121582 197.19931641 -223.20180664 198.26923828 -223.91235352 199.37158203 C-244.66624304 232.33122441 -257.94940907 268.82068412 -264.19750977 307.19189453 C-264.32497589 307.96595642 -264.45244202 308.74001831 -264.58377075 309.53753662 C-266.97498547 324.24252114 -268.00572173 338.77993086 -267.94750977 353.69189453 C-267.95137695 354.68640625 -267.95524414 355.68091797 -267.95922852 356.70556641 C-267.94111176 370.86381367 -266.57800453 384.67722433 -264.32250977 398.62939453 C-264.1941272 399.42631714 -264.06574463 400.22323975 -263.93347168 401.04431152 C-257.20583389 442.10104078 -242.25661495 489.35787577 -214.20881653 520.94682312 C-212.82250977 523.12939453 -212.82250977 523.12939453 -212.84701538 525.34140015 C-213.03663849 526.12914825 -213.2262616 526.91689636 -213.42163086 527.72851562 C-213.73834747 529.05070099 -213.73834747 529.05070099 -214.0614624 530.39959717 C-215.29916633 534.83911181 -216.71783139 539.19272944 -218.23657227 543.54345703 C-218.56736786 544.50794266 -218.89816345 545.47242828 -219.23898315 546.46614075 C-220.30279147 549.5642205 -221.37516901 552.65925911 -222.44750977 555.75439453 C-223.18326936 557.89354666 -223.91829305 560.03295205 -224.65258789 562.17260742 C-226.07992775 566.33126559 -227.50949829 570.48914484 -228.94067383 574.64648438 C-231.41062917 581.83121071 -233.82589937 589.0333004 -236.20751953 596.24780273 C-237.81020248 601.10220078 -239.44235811 605.94449549 -241.10766602 610.77783203 C-241.48793945 611.89101807 -241.86821289 613.0042041 -242.26000977 614.15112305 C-242.99105191 616.2895165 -243.72895696 618.42558041 -244.47485352 620.55883789 C-244.95825195 621.98015015 -244.95825195 621.98015015 -245.45141602 623.43017578 C-245.74089111 624.26718018 -246.03036621 625.10418457 -246.32861328 625.96655273 C-247.05676935 628.29243582 -247.05676935 628.29243582 -245.82250977 631.12939453 C-210.24123914 620.06935294 -210.24123914 620.06935294 -174.82250977 608.50439453 C-173.6770166 608.12001221 -172.53152344 607.73562988 -171.35131836 607.33959961 C-167.09113362 605.90770244 -162.83222647 604.47219396 -158.57641602 603.02734375 C-155.49588613 601.9860313 -152.41011034 600.96201556 -149.32250977 599.94189453 C-148.43692383 599.63751465 -147.55133789 599.33313477 -146.63891602 599.01953125 C-142.00750914 597.50590993 -138.62527065 596.59498812 -133.82250977 598.12939453 C-131.25219727 599.51220703 -131.25219727 599.51220703 -128.69750977 601.25439453 C-127.72942383 601.89119141 -126.76133789 602.52798828 -125.76391602 603.18408203 C-124.30791992 604.14701172 -124.30791992 604.14701172 -122.82250977 605.12939453 C-64.96491389 642.39360882 13.96512596 653.19490554 80.79125977 639.29418945 C130.71098153 628.31968121 176.96811324 606.92010287 215.23608398 572.71142578 C218.17749023 570.12939453 218.17749023 570.12939453 221.17749023 568.12939453 C221.17749023 567.46939453 221.17749023 566.80939453 221.17749023 566.12939453 C221.70729492 565.92572266 222.23709961 565.72205078 222.78295898 565.51220703 C226.21756095 563.52876642 228.73082367 560.8283284 231.48999023 558.00439453 C232.07393555 557.41182861 232.65788086 556.8192627 233.25952148 556.20874023 C237.40220907 551.9799393 241.39888752 547.68844485 245.17749023 543.12939453 C245.61464355 542.61666992 246.05179688 542.10394531 246.50219727 541.57568359 C256.03831371 530.38206213 264.26590383 518.51372439 272.17749023 506.12939453 C272.61577148 505.45021973 273.05405273 504.77104492 273.50561523 504.07128906 C282.90973034 489.41170865 290.37877838 473.39131669 296.44897461 457.08300781 C296.95563432 455.72433121 297.47058141 454.36872806 297.99194336 453.015625 C308.77739249 424.91572194 314.44911953 395.19289555 315.17749023 365.12939453 C315.1994043 364.2423584 315.22131836 363.35532227 315.24389648 362.44140625 C316.14578658 318.61706345 309.91986345 271.39576263 289.17749023 232.12939453 C288.57709005 230.91524108 287.9807334 229.69907976 287.38842773 228.48095703 C275.45885913 204.18707352 261.65311683 181.35500933 243.23999023 161.37548828 C241.43833267 159.41345589 239.7096118 157.41284704 237.98999023 155.37939453 C230.12619661 146.35807989 221.42277473 137.72852071 212.17749023 130.12939453 C211.48268555 129.54544922 210.78788086 128.96150391 210.07202148 128.35986328 C186.8739167 109.28068497 160.20856851 92.97724252 132.17749023 82.12939453 C131.42306641 81.8311377 130.66864258 81.53288086 129.89135742 81.22558594 C105.62837841 71.69742036 81.03545636 66.14124875 55.17749023 63.12939453 C54.21053223 63.01225098 53.24357422 62.89510742 52.24731445 62.77441406 C31.97953641 60.36235135 12.11633047 60.75781613 -8.13500977 63.12939453 Z " fill="#179C0D" transform="translate(382.822509765625,12.87060546875)"/>
<path d="M0 0 C2.00784167 0.15723254 4.02174562 0.23134752 6.03466797 0.296875 C7.16001953 0.338125 8.28537109 0.379375 9.44482422 0.421875 C10.41935547 0.44765625 11.39388672 0.4734375 12.39794922 0.5 C17.18767468 1.65060444 20.29826215 4.84176183 22.97802734 8.81738281 C28.85228774 20.80715419 33.20586743 33.36270462 37.69482422 45.921875 C38.92500339 49.34232589 40.15766119 52.76186666 41.39208984 56.18078613 C42.19271092 58.39955094 42.99092199 60.61918699 43.78662109 62.83972168 C45.56273047 67.77420875 47.37260721 72.6821369 49.34716797 77.54101562 C49.67664429 78.35523987 50.00612061 79.16946411 50.34558105 80.00836182 C50.94755269 81.47923763 51.56109331 82.94546721 52.1895752 84.4052124 C54.66139291 90.43425926 55.14257996 95.44745818 52.97998047 101.6640625 C48.93700332 109.60333282 44.4770739 115.76666314 38.19482422 122.171875 C36.97677503 123.55923808 35.76776622 124.95461342 34.56982422 126.359375 C31.71923524 129.64288053 28.70730216 132.70917205 25.57763672 135.7265625 C23.19510604 138.21677818 22.73127663 140.52455991 22.78979492 143.94458008 C24.50022898 153.35042092 31.68145939 162.35340041 36.94482422 170.109375 C37.65219727 171.15843018 38.35957031 172.20748535 39.08837891 173.28833008 C54.69302639 197.69479949 54.69302639 197.69479949 76.19482422 216.171875 C76.19482422 216.831875 76.19482422 217.491875 76.19482422 218.171875 C76.74267578 218.40777344 77.29052734 218.64367187 77.85498047 218.88671875 C80.79777864 220.50304696 83.09523409 222.53464557 85.63232422 224.734375 C99.18227761 236.25173071 114.34987073 245.53559506 130.32763672 253.2734375 C132.78216519 254.46252018 135.16406421 255.70034692 137.56201172 257.0078125 C144.9245447 261.02145584 144.9245447 261.02145584 153.11669922 261.80859375 C157.44086652 260.4837079 160.18203723 257.41281479 163.19482422 254.171875 C163.86900391 253.45773437 164.54318359 252.74359375 165.23779297 252.0078125 C167.60175738 249.43285672 169.90067696 246.80926872 172.19482422 244.171875 C173.26625546 242.95166191 174.33788176 241.73162007 175.40966797 240.51171875 C182.51731638 232.39366839 182.51731638 232.39366839 189.19482422 223.921875 C192.41289485 219.73365072 194.85698704 217.56151453 200.19482422 216.671875 C211.61746722 217.25452283 223.40513566 225.22141307 233.25732422 230.546875 C234.74381662 231.34402895 236.23063829 232.1405692 237.71777344 232.93652344 C240.73920335 234.55476259 243.75840339 236.17706497 246.77636719 237.80175781 C250.95745735 240.04928679 255.15421757 242.26608624 259.35498047 244.4765625 C261.24516878 245.47495735 263.13490758 246.47419573 265.02438354 247.47393799 C266.76804268 248.39453595 268.51471599 249.30941781 270.26147461 250.22412109 C287.8495639 259.57583036 287.8495639 259.57583036 290.19482422 266.171875 C291.23011953 274.75003618 289.30130994 282.89820819 287.19482422 291.171875 C287.02321777 291.8721582 286.85161133 292.57244141 286.67480469 293.29394531 C284.30254759 302.83809317 281.6297463 310.5126754 275.19482422 318.171875 C274.56253906 319.02458984 274.56253906 319.02458984 273.91748047 319.89453125 C270.63863908 324.21112042 266.61710431 327.13985358 262.19482422 330.171875 C261.18291016 330.87570312 260.17099609 331.57953125 259.12841797 332.3046875 C238.46476031 346.34695784 212.10847367 354.68908939 187.06982422 349.984375 C173.0061087 346.92704554 159.70786649 342.37685414 146.36621094 337.02734375 C143.64632542 335.95578103 140.90466743 334.95172906 138.15795898 333.95141602 C123.04100487 328.429902 108.44122516 321.64406092 94.19482422 314.171875 C93.21715088 313.66019775 93.21715088 313.66019775 92.21972656 313.13818359 C59.69168206 295.93253897 27.54266141 268.84995493 5.14404297 239.65625 C3.44312352 237.48834466 1.68117988 235.43656285 -0.14501953 233.375 C-3.61896992 229.42923311 -6.87301447 225.3550768 -10.05517578 221.171875 C-10.61092285 220.44274902 -11.16666992 219.71362305 -11.73925781 218.96240234 C-19.31837101 208.93966735 -26.40404605 198.5767156 -33.07080078 187.92578125 C-34.69690328 185.34379418 -36.36299118 182.7907315 -38.03564453 180.23876953 C-43.34954798 172.09335354 -48.17709972 163.72337644 -52.80517578 155.171875 C-53.42392578 154.04265625 -54.04267578 152.9134375 -54.68017578 151.75 C-62.40094728 137.06674707 -67.412544 121.5706051 -69.80517578 105.171875 C-69.98822266 104.04910156 -70.17126953 102.92632812 -70.35986328 101.76953125 C-72.49173462 84.54625489 -71.09896215 65.06745198 -63.80517578 49.171875 C-63.53044434 48.56778809 -63.25571289 47.96370117 -62.97265625 47.34130859 C-57.24710891 34.90409686 -50.11953457 24.25084533 -40.80517578 14.171875 C-40.04205078 13.32625 -39.27892578 12.480625 -38.49267578 11.609375 C-26.0794104 0.35083198 -16.1218565 -1.4230198 0 0 Z " fill="#179C0D" transform="translate(300.80517578125,192.828125)"/>
</svg>
