<?xml version="1.0" encoding="UTF-8"?>
<svg version="1.1" xmlns="http://www.w3.org/2000/svg" width="1536" height="1024">
<path d="M0 0 C26.42528602 22.44689351 43.83294451 49.65012128 48.828125 84.40234375 C50.52569907 116.06385635 46.6122821 149.1428309 25.765625 174.58984375 C25.17652344 175.24339844 24.58742188 175.89695312 23.98046875 176.5703125 C22.61655837 178.31271596 22.61655837 178.31271596 23.05316162 180.2926178 C23.98591819 182.83191294 25.15442491 184.09038856 27.07519531 185.98999023 C27.75970764 186.67427597 28.44421997 187.35856171 29.1494751 188.06358337 C29.89421082 188.79283524 30.63894653 189.5220871 31.40625 190.2734375 C32.55163239 191.41245262 32.55163239 191.41245262 33.72015381 192.57447815 C36.1658637 195.00339323 38.62177128 197.42169784 41.078125 199.83984375 C42.71813415 201.46480249 44.35746528 203.09044584 45.99609375 204.71679688 C49.014366 207.71057328 52.0364784 210.70034986 55.06347656 213.68530273 C57.997177 216.57898583 60.91867448 219.48424559 63.828125 222.40234375 C64.44365234 223.01787109 65.05917969 223.63339844 65.69335938 224.26757812 C68.87369792 227.44791667 72.05403646 230.62825521 75.234375 233.80859375 C75.85183594 234.42541016 76.46929688 235.04222656 77.10546875 235.67773438 C78.59063949 237.16458898 80.06937772 238.65786374 81.546875 240.15234375 C83.58102233 242.15862605 85.65732343 244.04665854 87.828125 245.90234375 C90.98315158 248.5993826 93.89580629 251.4648328 96.828125 254.40234375 C98.33466161 255.88115054 99.84593375 257.35501799 101.35728455 258.8289032 C103.71618776 261.13359026 106.0638984 263.44955318 108.41137695 265.76586914 C109.64216252 266.97656025 110.87651706 268.18363439 112.11450195 269.38696289 C130.83640767 287.60010761 130.83640767 287.60010761 131.203125 301.46484375 C131.23440672 309.59809062 129.45967842 315.39851812 123.9609375 321.4609375 C117.28500494 327.7082596 109.9761648 330.60745675 100.828125 330.40234375 C89.40125737 328.62175772 81.17960218 320.9109979 73.828125 312.40234375 C73.828125 311.74234375 73.828125 311.08234375 73.828125 310.40234375 C73.26738281 310.16773438 72.70664062 309.933125 72.12890625 309.69140625 C69.26787456 308.08845131 67.314077 306.11561145 65.015625 303.77734375 C64.20480469 302.96007812 63.39398437 302.1428125 62.55859375 301.30078125 C60.52133915 299.13820197 58.57166827 296.9591703 56.63743591 294.70825195 C52.96793207 290.50552042 49.10311961 286.54278578 45.14868164 282.609375 C44.41614166 281.876689 43.68360168 281.14400299 42.92886353 280.38911438 C40.53436837 277.99530957 38.13636302 275.60505506 35.73828125 273.21484375 C34.06654845 271.54497826 32.39503795 269.87489018 30.72373962 268.20458984 C26.34481364 263.82946443 21.96289184 259.45735168 17.58032227 255.08587646 C13.10054991 250.61637135 8.62364093 246.14400012 4.14648438 241.671875 C-4.62351468 232.91256982 -13.39668387 224.15644722 -22.171875 215.40234375 C-23.33271606 215.88744415 -24.49355713 216.37254456 -25.6895752 216.87234497 C-27.23114269 217.51285644 -28.77277194 218.15321928 -30.31445312 218.79345703 C-31.45880829 219.27236137 -31.45880829 219.27236137 -32.62628174 219.76094055 C-38.21802534 222.07817024 -43.76372437 223.93368407 -49.671875 225.27734375 C-50.47367188 225.47585938 -51.27546875 225.674375 -52.1015625 225.87890625 C-85.57306844 233.89473615 -119.70978339 225.79243236 -148.60791016 208.19091797 C-154.23065492 204.65612861 -159.4536523 200.72494823 -164.546875 196.46484375 C-165.39608521 195.75557739 -165.39608521 195.75557739 -166.26245117 195.03198242 C-167.60863495 193.87018426 -168.89662249 192.64158415 -170.171875 191.40234375 C-170.171875 190.74234375 -170.171875 190.08234375 -170.171875 189.40234375 C-170.831875 189.40234375 -171.491875 189.40234375 -172.171875 189.40234375 C-195.39550101 165.32785213 -207.71208191 131.21411914 -207.3203125 98.03125 C-205.87804833 62.77168644 -192.46127174 31.6149213 -166.99609375 6.9296875 C-121.0163284 -34.21679685 -49.0402914 -38.97196342 0 0 Z " fill="#CFDAE4" transform="translate(944.171875,383.59765625)"/>
<path d="M0 0 C21.29570115 17.58483329 34.21203467 41.26447707 37.76004028 68.67784119 C38.19906206 73.38377156 38.12243559 78.08666247 38.07421875 82.80859375 C38.06886108 83.81756714 38.06350342 84.82654053 38.0579834 85.86608887 C38.04413487 88.32748327 38.02470166 90.78869468 38 93.25 C39.25454735 93.24000725 39.25454735 93.24000725 40.53443909 93.22981262 C48.43479683 93.16958233 56.33507693 93.12396515 64.23561192 93.09456348 C68.29690446 93.07893937 72.35800652 93.05776107 76.41918945 93.02368164 C80.34197284 92.99097138 84.26457354 92.97312252 88.18748283 92.96536827 C89.68054007 92.95984561 91.17358785 92.94906127 92.66656685 92.93280983 C94.76563882 92.91087952 96.8639658 92.90803944 98.96313477 92.90942383 C100.15560318 92.90276199 101.34807159 92.89610016 102.57667542 92.88923645 C107.1764797 93.37398211 111.2002926 94.66415917 114.7421875 97.78515625 C118.08528243 102.29257045 119.13826768 104.6554681 119.53515625 110.2265625 C119.6223291 111.44835205 119.70950195 112.6701416 119.79931641 113.92895508 C119.88616699 115.2311499 119.97301758 116.53334473 120.0625 117.875 C120.15192871 119.18686279 120.24135742 120.49872559 120.33349609 121.8503418 C120.92844333 131.01876197 121.18551917 140.06680128 121 149.25 C114.07 148.59 107.14 147.93 100 147.25 C99.12917242 136.14694832 99 125.45457299 99 114.25 C78.87 114.25 58.74 114.25 38 114.25 C38.15803917 126.53099566 38.15803917 126.53099566 38.36035156 138.8112793 C38.37204011 140.35724786 38.38223155 141.90322878 38.390625 143.44921875 C38.41108887 144.2441272 38.43155273 145.03903564 38.45263672 145.85803223 C38.45514692 149.86118235 38.30317417 151.77314366 36.10058594 155.23754883 C32.5988757 158.59233701 29.94403726 158.59152299 25.2578125 158.53125 C21.8492497 158.10665394 20.25384722 156.77704082 18 154.25 C15.85545064 150.07975583 15.72167367 146.20723959 15.76953125 141.61328125 C15.76998947 140.89262985 15.77044769 140.17197845 15.7709198 139.42948914 C15.77392847 137.91415753 15.78177306 136.39882864 15.79418945 134.88354492 C15.8125227 132.55962231 15.8146984 130.236097 15.81445312 127.91210938 C15.81936607 126.43749654 15.82519341 124.96288641 15.83203125 123.48828125 C15.83314407 122.79245438 15.8342569 122.0966275 15.83540344 121.37971497 C15.88389124 116.48221751 15.88389124 116.48221751 17 114.25 C-34.48 114.25 -85.96 114.25 -139 114.25 C-139 126.13 -139 138.01 -139 150.25 C-142.8203125 156.6171875 -142.8203125 156.6171875 -146 158.25 C-152.5046729 159.08931263 -152.5046729 159.08931263 -155.81640625 157.23046875 C-158.50582673 155.08541289 -159.90491823 153.53524531 -161 150.25 C-161.08506322 147.51864749 -161.11599182 144.81287685 -161.09765625 142.08203125 C-161.09664917 141.37735718 -161.09564209 140.67268311 -161.09460449 139.94665527 C-161.08937914 137.31858692 -161.07541786 134.6905418 -161.0625 132.0625 C-161.041875 126.184375 -161.02125 120.30625 -161 114.25 C-181.13 114.25 -201.26 114.25 -222 114.25 C-222.09982178 118.1380542 -222.19964355 122.0261084 -222.30249023 126.03198242 C-223.03220638 150.17438204 -224.489492 174.28739532 -225.8131446 198.40277367 C-226.205053 205.54738255 -226.59213161 212.69225101 -226.97878676 219.83714583 C-227.66924347 232.59524742 -228.36196892 245.35322452 -229.05688477 258.11108398 C-229.09818787 258.8693823 -229.13949098 259.62768063 -229.18204569 260.40895768 C-229.64366373 268.88309907 -230.1057935 277.35721245 -230.56842041 285.83129883 C-230.73678439 288.91544549 -230.90514041 291.99959259 -231.07348633 295.08374023 C-231.11504154 295.84502439 -231.15659676 296.60630856 -231.19941122 297.39066193 C-231.89451395 310.1267808 -232.58581394 322.86310303 -233.27420896 335.59958619 C-233.69679033 343.4150477 -234.1225795 351.23032105 -234.55268966 359.04537191 C-234.88198638 365.03349576 -235.20622142 371.02188301 -235.52867317 377.01037979 C-235.66080511 379.44918808 -235.79458064 381.88790803 -235.93020248 384.32652473 C-236.52585785 395.0508422 -237.10736462 405.76964764 -237.18479919 416.51237488 C-237.1988579 417.58712034 -237.1988579 417.58712034 -237.21320063 418.68357784 C-237.19936935 426.02271689 -235.23435969 430.68048635 -230.5 436.125 C-229.675 436.82625 -228.85 437.5275 -228 438.25 C-227.38125 438.806875 -226.7625 439.36375 -226.125 439.9375 C-219.43667475 444.06852442 -211.97388448 443.53960674 -204.38078308 443.52415466 C-203.10778943 443.52939134 -201.83479578 443.53462802 -200.52322656 443.54002339 C-197.00103578 443.55416225 -193.47893342 443.55586747 -189.95671833 443.55542648 C-186.15359679 443.55707829 -182.35051131 443.57015147 -178.54740906 443.58161926 C-170.23750029 443.60443856 -161.92761712 443.6123863 -153.61768126 443.61744571 C-148.42660312 443.62070576 -143.23553236 443.62723003 -138.04445839 443.6344471 C-123.6642935 443.65400763 -109.28413546 443.6704155 -94.90395641 443.67332363 C-93.98432317 443.6735112 -93.06468993 443.67369877 -92.11718901 443.67389202 C-90.25298361 443.67425827 -88.38877821 443.67462197 -86.52457281 443.67498314 C-85.13653647 443.67525735 -85.13653647 443.67525735 -83.72045898 443.67553711 C-82.79396879 443.67571766 -81.8674786 443.67589821 -80.91291294 443.67608423 C-65.8983083 443.67962638 -50.88384702 443.7066538 -35.8692921 443.744035 C-20.44434526 443.78212992 -5.01946954 443.80148119 10.40552539 443.80178314 C19.06226478 443.80236738 27.71883304 443.81083801 36.37552834 443.83978081 C43.74593797 443.86431035 51.11611403 443.8715669 58.48655347 443.85653328 C62.24488147 443.8493712 66.00274837 443.85019096 69.76102448 443.87294388 C73.84096477 443.897407 77.91985903 443.88287908 81.99983215 443.86473083 C83.76994108 443.88453079 83.76994108 443.88453079 85.57580978 443.90473074 C93.47075658 443.82460313 100.84408727 442.46814253 106.60871822 436.61719316 C108.75745069 434.50566379 110.81309051 434.71411078 113.76171875 434.51953125 C115.43911133 434.39868164 115.43911133 434.39868164 117.15039062 434.27539062 C118.31763672 434.20513672 119.48488281 434.13488281 120.6875 434.0625 C121.86634766 433.98064453 123.04519531 433.89878906 124.25976562 433.81445312 C127.17257666 433.61397625 130.08564493 433.42634935 133 433.25 C132.37795305 434.68357665 131.75223693 436.11556153 131.125 437.546875 C130.77695312 438.34448242 130.42890625 439.14208984 130.0703125 439.96386719 C128.66712947 442.96099444 126.94444778 445.5763843 125 448.25 C124.195625 449.4565625 124.195625 449.4565625 123.375 450.6875 C115.73507148 458.93058077 104.70418954 464.82408448 93.36776495 465.37880117 C91.94128378 465.38148402 91.94128378 465.38148402 90.4859848 465.38422108 C89.38329364 465.38867892 88.28060248 465.39313676 87.14449644 465.39772969 C85.93838854 465.39754533 84.73228065 465.39736097 83.48962402 465.39717102 C82.20412171 465.40084771 80.91861939 465.4045244 79.59416246 465.4083125 C76.02765829 465.41831166 72.46117095 465.42204593 68.89465475 465.42470181 C65.04714337 465.4286111 61.19964524 465.43818904 57.35214233 465.44691467 C48.06079685 465.46666216 38.76945031 465.47674343 29.47808909 465.48564246 C25.09949215 465.49002845 20.72089641 465.49539448 16.34230042 465.50063133 C1.78121949 465.51764242 -12.77986068 465.53213552 -27.34095001 465.53938007 C-31.11825054 465.54128988 -34.89555106 465.54321022 -38.67285156 465.54516602 C-39.61164829 465.54564976 -40.55044501 465.5461335 -41.51769012 465.5466319 C-56.71789785 465.5549282 -71.91802678 465.58025889 -87.11820012 465.61274669 C-102.73406413 465.64585004 -118.34988814 465.66383182 -133.96578741 465.66702431 C-142.72938264 465.66918645 -151.49286298 465.67789158 -160.25642395 465.70348549 C-167.7215549 465.72523734 -175.18654306 465.73322095 -182.65170211 465.72351871 C-186.45690974 465.71898685 -190.26182301 465.72079464 -194.0669899 465.74028015 C-198.20278316 465.7612747 -202.33792922 465.75088536 -206.47375488 465.73774719 C-207.66201701 465.74871644 -208.85027913 465.75968568 -210.0745492 465.77098733 C-223.70253181 465.66690658 -235.77840604 461.58448555 -246.02734375 452.44140625 C-255.48494687 442.48712375 -259.38802383 429.93833447 -259.2644043 416.49707031 C-259.25898715 415.47982502 -259.25357 414.46257973 -259.2479887 413.41450882 C-259.03808868 396.07853079 -257.90233702 378.75736338 -256.94343781 361.45078564 C-256.64609555 356.05828696 -256.35630856 350.66538147 -256.06559753 345.27252197 C-255.51008389 334.98804872 -254.9480112 324.70394509 -254.38350075 314.41996217 C-253.63840375 300.83968975 -252.90321302 287.25888172 -252.16782737 273.67808056 C-251.50412925 261.42345651 -250.83701529 249.16904066 -250.15969849 236.91516113 C-249.91557394 232.49228534 -249.67176232 228.06939241 -249.42822266 223.64648438 C-249.36827441 222.55813199 -249.30832615 221.46977961 -249.24656129 220.34844685 C-248.39071526 204.77580655 -247.59049255 189.2010671 -246.82548249 173.62371588 C-246.5064867 167.16622751 -246.17823429 160.70920241 -245.84970754 154.25219274 C-245.54198484 148.1808171 -245.24997669 142.10895371 -244.96990061 136.03624344 C-244.7950032 132.32490262 -244.60518026 128.61443685 -244.41115022 124.90405178 C-244.32497642 123.19636901 -244.24508319 121.48835558 -244.1720407 119.78006077 C-244.07169957 117.45083399 -243.94899027 115.12379846 -243.82084656 112.79595947 C-243.72723107 110.85069052 -243.72723107 110.85069052 -243.63172436 108.8661232 C-242.64536902 103.22001764 -240.54782814 99.45035652 -235.9375 95.875 C-231.48077626 93.40957836 -228.36055491 93.12730318 -223.32543945 93.13647461 C-222.652005 93.13632858 -221.97857056 93.13618256 -221.284729 93.1360321 C-219.06088021 93.13672825 -216.83711539 93.14450668 -214.61328125 93.15234375 C-213.07057236 93.15420899 -211.52786289 93.15563239 -209.9851532 93.15663147 C-205.92616132 93.16044831 -201.86720527 93.17027149 -197.80822754 93.18133545 C-193.66577641 93.19156748 -189.5233195 93.19613293 -185.38085938 93.20117188 C-177.25388982 93.21189449 -169.12694937 93.22896093 -161 93.25 C-161.00654602 92.5714093 -161.01309204 91.8928186 -161.01983643 91.19366455 C-161.04607477 88.07183319 -161.06216203 84.95002515 -161.078125 81.828125 C-161.08859863 80.76094238 -161.09907227 79.69375977 -161.10986328 78.59423828 C-161.21548831 50.98385486 -150.51586459 25.92262801 -131.375 6.125 C-96.29837893 -28.68032268 -38.37810204 -29.64500452 0 0 Z M-119 24.25 C-136.664586 45.82651348 -139 64.8911775 -139 93.25 C-87.52 93.25 -36.04 93.25 17 93.25 C15.84098392 61.95656576 12.72645578 41.13272258 -9.6875 19.5625 C-41.18938151 -7.69686806 -90.2280043 -6.64203749 -119 24.25 Z " fill="#1B77C2" transform="translate(764,191.75)"/>
<path d="M0 0 C26.42528602 22.44689351 43.83294451 49.65012128 48.828125 84.40234375 C50.52569907 116.06385635 46.6122821 149.1428309 25.765625 174.58984375 C25.17652344 175.24339844 24.58742188 175.89695312 23.98046875 176.5703125 C22.61655837 178.31271596 22.61655837 178.31271596 23.05316162 180.2926178 C23.98591819 182.83191294 25.15442491 184.09038856 27.07519531 185.98999023 C27.75970764 186.67427597 28.44421997 187.35856171 29.1494751 188.06358337 C29.89421082 188.79283524 30.63894653 189.5220871 31.40625 190.2734375 C32.55163239 191.41245262 32.55163239 191.41245262 33.72015381 192.57447815 C36.1658637 195.00339323 38.62177128 197.42169784 41.078125 199.83984375 C42.71813415 201.46480249 44.35746528 203.09044584 45.99609375 204.71679688 C49.014366 207.71057328 52.0364784 210.70034986 55.06347656 213.68530273 C57.997177 216.57898583 60.91867448 219.48424559 63.828125 222.40234375 C64.44365234 223.01787109 65.05917969 223.63339844 65.69335938 224.26757812 C68.87369792 227.44791667 72.05403646 230.62825521 75.234375 233.80859375 C75.85183594 234.42541016 76.46929688 235.04222656 77.10546875 235.67773438 C78.59063949 237.16458898 80.06937772 238.65786374 81.546875 240.15234375 C83.58102233 242.15862605 85.65732343 244.04665854 87.828125 245.90234375 C90.98315158 248.5993826 93.89580629 251.4648328 96.828125 254.40234375 C98.33466161 255.88115054 99.84593375 257.35501799 101.35728455 258.8289032 C103.71618776 261.13359026 106.0638984 263.44955318 108.41137695 265.76586914 C109.64216252 266.97656025 110.87651706 268.18363439 112.11450195 269.38696289 C130.83640767 287.60010761 130.83640767 287.60010761 131.203125 301.46484375 C131.23440672 309.59809062 129.45967842 315.39851812 123.9609375 321.4609375 C117.28500494 327.7082596 109.9761648 330.60745675 100.828125 330.40234375 C89.40125737 328.62175772 81.17960218 320.9109979 73.828125 312.40234375 C73.828125 311.74234375 73.828125 311.08234375 73.828125 310.40234375 C73.26738281 310.16773438 72.70664062 309.933125 72.12890625 309.69140625 C69.26787456 308.08845131 67.314077 306.11561145 65.015625 303.77734375 C64.20480469 302.96007812 63.39398437 302.1428125 62.55859375 301.30078125 C60.52133915 299.13820197 58.57166827 296.9591703 56.63743591 294.70825195 C52.96793207 290.50552042 49.10311961 286.54278578 45.14868164 282.609375 C44.41614166 281.876689 43.68360168 281.14400299 42.92886353 280.38911438 C40.53436837 277.99530957 38.13636302 275.60505506 35.73828125 273.21484375 C34.06654845 271.54497826 32.39503795 269.87489018 30.72373962 268.20458984 C26.34481364 263.82946443 21.96289184 259.45735168 17.58032227 255.08587646 C13.10054991 250.61637135 8.62364093 246.14400012 4.14648438 241.671875 C-4.62351468 232.91256982 -13.39668387 224.15644722 -22.171875 215.40234375 C-23.33271606 215.88744415 -24.49355713 216.37254456 -25.6895752 216.87234497 C-27.23114269 217.51285644 -28.77277194 218.15321928 -30.31445312 218.79345703 C-31.45880829 219.27236137 -31.45880829 219.27236137 -32.62628174 219.76094055 C-38.21802534 222.07817024 -43.76372437 223.93368407 -49.671875 225.27734375 C-50.47367188 225.47585938 -51.27546875 225.674375 -52.1015625 225.87890625 C-85.57306844 233.89473615 -119.70978339 225.79243236 -148.60791016 208.19091797 C-154.23065492 204.65612861 -159.4536523 200.72494823 -164.546875 196.46484375 C-165.39608521 195.75557739 -165.39608521 195.75557739 -166.26245117 195.03198242 C-167.60863495 193.87018426 -168.89662249 192.64158415 -170.171875 191.40234375 C-170.171875 190.74234375 -170.171875 190.08234375 -170.171875 189.40234375 C-170.831875 189.40234375 -171.491875 189.40234375 -172.171875 189.40234375 C-195.39550101 165.32785213 -207.71208191 131.21411914 -207.3203125 98.03125 C-205.87804833 62.77168644 -192.46127174 31.6149213 -166.99609375 6.9296875 C-121.0163284 -34.21679685 -49.0402914 -38.97196342 0 0 Z M-146.171875 19.40234375 C-147.03167969 20.11132812 -147.89148438 20.8203125 -148.77734375 21.55078125 C-168.77662628 38.72845958 -181.77062671 63.0704069 -184.171875 89.40234375 C-185.91753054 118.79054481 -178.43618323 146.59551076 -159.171875 169.40234375 C-142.12711269 188.54781324 -119.75074553 201.73144709 -94.171875 205.40234375 C-78.41765964 206.25433585 -62.16144169 206.85147109 -47.171875 201.40234375 C-46.08003906 201.04011719 -44.98820313 200.67789063 -43.86328125 200.3046875 C-29.33514473 195.15966916 -17.4354898 187.82269327 -6.171875 177.40234375 C-5.37265625 176.6959375 -4.5734375 175.98953125 -3.75 175.26171875 C15.31558234 157.54830537 25.91235678 130.77645798 27.05078125 105.11328125 C27.34345568 94.56781985 26.07866945 84.68754223 23.828125 74.40234375 C23.63476562 73.43039062 23.44140625 72.4584375 23.2421875 71.45703125 C17.18403457 45.10013213 -2.85471537 23.50929098 -24.921875 9.15234375 C-36.38611043 2.64714437 -49.20400207 -1.50336153 -62.171875 -3.59765625 C-62.94273437 -3.72785156 -63.71359375 -3.85804688 -64.5078125 -3.9921875 C-93.42075042 -8.02280152 -123.89066101 0.63582198 -146.171875 19.40234375 Z " fill="#1A77C2" transform="translate(944.171875,383.59765625)"/>
<path d="M0 0 C14 0 14 0 17.6484375 3.12890625 C18.60593582 4.57572918 19.51278979 6.05694589 20.375 7.5625 C21.43411292 9.20623389 22.49405094 10.84943634 23.5546875 12.4921875 C24.1022168 13.37745117 24.64974609 14.26271484 25.21386719 15.17480469 C28.45742185 20.30526047 32.00682846 25.22534573 35.5 30.1875 C37.39303999 32.91610592 39.28188638 35.64756893 41.16992188 38.37963867 C43.42177818 41.60391478 45.71411401 44.79975962 48 48 C48.33 32.16 48.66 16.32 49 0 C53.95 0 58.9 0 64 0 C64 25.08 64 50.16 64 76 C50 76 50 76 46.83203125 73.71875 C46.16558594 72.6565625 45.49914062 71.594375 44.8125 70.5 C44.42562012 69.91831055 44.03874023 69.33662109 43.64013672 68.73730469 C42.8150975 67.49068131 42.01005581 66.23062354 41.22412109 64.95898438 C39.57245147 62.31578592 37.78613458 59.776503 36.00024414 57.22290039 C34.61493397 55.23555945 33.25076624 53.23510323 31.890625 51.23046875 C28.76650392 46.64069725 25.57687817 42.09825434 22.375 37.5625 C21.59310303 36.45213379 21.59310303 36.45213379 20.79541016 35.31933594 C20.31378418 34.63774414 19.8321582 33.95615234 19.3359375 33.25390625 C18.90845215 32.64877197 18.4809668 32.0436377 18.04052734 31.42016602 C17.06817892 30.0173532 17.06817892 30.0173532 16 29 C15.67 44.51 15.34 60.02 15 76 C10.05 76 5.1 76 0 76 C0 50.92 0 25.84 0 0 Z " fill="#1975C0" transform="translate(337,781)"/>
<path d="M0 0 C41.94993857 0 41.94993857 0 49.53125 7.27734375 C54.48264057 13.0846928 56.10543597 19.44375569 56 27 C55.2242593 34.41130729 52.6606735 39.89567882 46.875 44.75 C45.92625 45.4925 44.9775 46.235 44 47 C43.34 47.66 42.68 48.32 42 49 C42.67373657 50.0669812 42.67373657 50.0669812 43.36108398 51.15551758 C45.02784624 53.79846154 46.69175685 56.44317236 48.35375977 59.08911133 C49.07332582 60.23338184 49.79402038 61.37694352 50.51586914 62.51977539 C51.55391922 64.16365236 52.58756477 65.81030804 53.62109375 67.45703125 C54.2442749 68.44678955 54.86745605 69.43654785 55.50952148 70.45629883 C57 73 57 73 58 76 C52.25923236 77.58099476 46.52046732 78.80476288 41 76 C36.88372509 71.19082041 34.1037876 65.59436449 31.43920898 59.89282227 C30.88434814 58.76287842 30.3294873 57.63293457 29.7578125 56.46875 C29.2952002 55.42138672 28.83258789 54.37402344 28.35595703 53.29492188 C25.23489655 49.72076035 25.23489655 49.72076035 15 51 C15 59.25 15 67.5 15 76 C10.05 76 5.1 76 0 76 C0 50.92 0 25.84 0 0 Z M15 13 C15 20.59 15 28.18 15 36 C19.0528125 36.0928125 19.0528125 36.0928125 23.1875 36.1875 C24.02949951 36.21481201 24.87149902 36.24212402 25.73901367 36.27026367 C31.37466348 36.33256195 34.60688579 35.22807185 38.8125 31.3125 C40.57432083 27.88158576 40.6084304 24.72216246 40 21 C38.82104963 17.48149976 38.82104963 17.48149976 36 15 C29.24670018 12.39390285 22.14510232 13 15 13 Z " fill="#1B77C1" transform="translate(510,781)"/>
<path d="M0 0 C4.62 0 9.24 0 14 0 C14 25.74 14 51.48 14 78 C9.38 78 4.76 78 0 78 C-0.33 76.68 -0.66 75.36 -1 74 C-1.78375 74.639375 -2.5675 75.27875 -3.375 75.9375 C-8.77615517 80.18126477 -14.33891309 79.43077688 -21 79 C-27.19447142 77.68297725 -32.55852392 73.32101404 -36.2578125 68.2890625 C-40.79232908 60.32846673 -42.08683264 50.18030954 -39.8203125 41.34375 C-36.86841067 32.90974477 -32.3416285 26.73292621 -24.3125 22.625 C-16.10070451 21.07560462 -9.51045763 21.43746753 -2 25 C-1.96241577 23.91730835 -1.96241577 23.91730835 -1.92407227 22.81274414 C-1.80848698 19.562465 -1.68559226 16.31250312 -1.5625 13.0625 C-1.52318359 11.92619141 -1.48386719 10.78988281 -1.44335938 9.61914062 C-1.38051758 7.99975586 -1.38051758 7.99975586 -1.31640625 6.34765625 C-1.27974854 5.34742432 -1.24309082 4.34719238 -1.20532227 3.31665039 C-1 1 -1 1 0 0 Z M-21 37 C-25.43015411 42.94906409 -26.86105207 47.69875028 -26 55 C-24.47040728 59.58877817 -22.43721157 63.71416374 -18 66 C-14.14334529 67.39268087 -10.97426658 66.82359649 -7.0625 66.05859375 C-3.85140769 64.41047629 -1.74627581 62.10124708 0 59 C0.4449677 56.0696535 0.61886554 53.83079522 0.5 50.9375 C0.50257812 50.24333984 0.50515625 49.54917969 0.5078125 48.83398438 C0.42363808 44.40220141 -0.32624241 41.53457711 -3 38 C-6.7670558 34.78692299 -10.07008034 34.67454115 -14.81640625 34.69921875 C-17.29200028 35.04022186 -18.88467147 35.67569768 -21 37 Z " fill="#1976C1" transform="translate(1189,779)"/>
<path d="M0 0 C8.71287271 5.29605988 13.70412381 11.00399525 16.1875 20.9375 C16.1875 24.2375 16.1875 27.5375 16.1875 30.9375 C2.9875 30.9375 -10.2125 30.9375 -23.8125 30.9375 C-20.84173533 37.97483308 -20.84173533 37.97483308 -15.8125 41.9375 C-11.02734654 43.53255115 -7.22946703 43.53698605 -2.5625 41.5625 C-0.6118448 40.40984011 1.30227149 39.19431901 3.1875 37.9375 C6.10546875 38.6171875 6.10546875 38.6171875 9.375 39.8125 C10.46167969 40.20179688 11.54835938 40.59109375 12.66796875 40.9921875 C13.49941406 41.30414062 14.33085938 41.61609375 15.1875 41.9375 C13.26538843 45.39492051 11.34815297 48.01542787 8.375 50.625 C7.72917969 51.20636719 7.08335937 51.78773438 6.41796875 52.38671875 C-0.4620691 57.17021267 -8.79115735 56.72047633 -16.8125 55.9375 C-24.69957465 53.76248343 -30.25938252 48.59793564 -34.8125 41.9375 C-38.57578993 34.81639246 -39.00499972 26.75237792 -37.0859375 19.00390625 C-34.2993908 10.65559357 -30.60385546 5.38970312 -22.8125 0.9375 C-15.40604737 -1.95661805 -7.64874075 -2.13161627 0 0 Z " fill="#1975C0" transform="translate(610.8125,802.0625)"/>
<path d="M0 0 C0 0.66 0 1.32 0 2 C0.5662207 2.24169922 1.13244141 2.48339844 1.71582031 2.73242188 C4.4522274 4.25095817 6.33069338 6.07151881 8.546875 8.28125 C9.39121094 9.12300781 10.23554687 9.96476563 11.10546875 10.83203125 C12.41451172 12.15267578 12.41451172 12.15267578 13.75 13.5 C14.63816406 14.38042969 15.52632812 15.26085937 16.44140625 16.16796875 C17.28058594 17.00972656 18.11976563 17.85148438 18.984375 18.71875 C19.75491211 19.49154297 20.52544922 20.26433594 21.31933594 21.06054688 C23 23 23 23 23 25 C23.591866 25.25411431 24.18373199 25.50822863 24.79353333 25.77004337 C27.24095018 27.1343135 28.52967473 28.52318742 30.3034668 30.67930603 C33.72601439 34.71899631 37.35372873 38.43887347 41.14453125 42.13110352 C42.5427088 43.50299002 43.94081774 44.87494646 45.33886719 46.2469635 C46.06827515 46.9608983 46.79768311 47.67483311 47.54919434 48.4104023 C51.44104968 52.22521909 55.31477961 56.05839149 59.19140625 59.88867188 C64.11017499 64.74733148 69.03431988 69.60009694 73.97998047 74.43139648 C77.99297511 78.35254453 81.98625672 82.29282146 85.96688843 86.24680901 C87.48448698 87.74711567 89.00923993 89.24022105 90.54116821 90.72589302 C92.67648465 92.79858457 94.7857229 94.89478267 96.890625 96.99829102 C97.84732338 97.90948952 97.84732338 97.90948952 98.823349 98.83909607 C100.46194564 100.50519669 101.82884766 101.97758302 103 104 C102.95470655 107.60878729 102.63766181 109.866379 100.875 113 C97.66713206 114.7108629 95.45578305 113.8852157 92 113 C89.19661853 111.04525114 86.89837208 108.66782546 84.5234375 106.22045898 C83.81189514 105.51139908 83.10035278 104.80233917 82.36724854 104.0717926 C80.02185978 101.72732098 77.69854797 99.36219689 75.375 96.99609375 C73.74391883 95.3563523 72.11157496 93.717866 70.47802734 92.08058167 C66.17971129 87.76503625 61.9001275 83.43135441 57.6237793 79.09405518 C54.14386599 75.57067128 50.65107135 72.06021921 47.15744019 68.5504446 C42.97571972 64.34903396 38.79942243 60.14225453 34.625 55.93359375 C33.83486511 55.13703306 33.04473022 54.34047237 32.23065186 53.51977348 C29.97644944 51.24440164 27.725857 48.96552527 25.4765625 46.68530273 C24.49287689 45.69287064 24.49287689 45.69287064 23.48931885 44.6803894 C19.68915572 40.81886685 16.07015451 36.85274554 12.56137085 32.7239542 C10.86089008 30.76576102 10.86089008 30.76576102 8 28.5 C4.93410467 25.94508722 2.52245968 23.23098402 -0.0546875 20.203125 C-3.5140208 16.28532584 -7.26791555 12.65591946 -11 9 C-8.88062329 4.25421866 -5.55331594 0 0 0 Z " fill="#D1DCE4" transform="translate(952,579)"/>
<path d="M0 0 C16.17 0 32.34 0 49 0 C49 4.29 49 8.58 49 13 C37.78 13 26.56 13 15 13 C15 19.6 15 26.2 15 33 C24.57 33 34.14 33 44 33 C43.67 37.29 43.34 41.58 43 46 C33.76 46 24.52 46 15 46 C15 55.9 15 65.8 15 76 C10.05 76 5.1 76 0 76 C0 50.92 0 25.84 0 0 Z " fill="#1975C1" transform="translate(905,781)"/>
<path d="M0 0 C7.15572703 4.23380516 12.97734505 10.47698839 15.1640625 18.61328125 C16.63301448 27.64301545 16.24108788 36.42199858 11.15625 44.21875 C6.94131706 49.54706145 2.13870951 53.20920459 -4.4375 55.0625 C-15.46664363 56.31631613 -24.29188628 55.20046139 -33.25 48.3125 C-38.49173481 43.52075171 -41.09734461 37.17782262 -41.67578125 30.1796875 C-41.88765203 20.92427994 -40.34973486 14.47245565 -35.25 6.75 C-26.00193963 -2.08703547 -11.94099989 -5.4125093 0 0 Z M-25.4375 17.0625 C-28.16433822 22.63473462 -28.13532847 27.81394159 -26.3125 33.6875 C-24.22289426 37.44879033 -22.37373683 40.24944546 -18.4375 42.0625 C-13.79812053 42.98617736 -9.53430304 43.12209442 -5.2421875 40.953125 C-1.00753197 37.65753534 0.83082994 34.4585667 1.5625 29.0625 C1.62627754 22.98237417 0.54435174 18.84072208 -3.4375 14.0625 C-7.36375992 10.51866799 -10.53260648 10.43774697 -15.671875 10.58203125 C-20.14882814 11.35980701 -22.71887678 13.50549896 -25.4375 17.0625 Z " fill="#1B78C2" transform="translate(1001.4375,802.9375)"/>
<path d="M0 0 C0.67546875 0.36738281 1.3509375 0.73476563 2.046875 1.11328125 C8.42353348 5.1766031 11.76755508 10.86269434 14 18 C15.31947455 27.86560968 14.30082601 35.79045005 8.64453125 43.95703125 C4.56985177 49.14596625 -0.40061144 52.76765345 -7 54 C-15.72027424 54.61925114 -23.38860621 54.76336679 -31 50 C-31.886875 49.46375 -32.77375 48.9275 -33.6875 48.375 C-41.45963328 40.39280906 -43.44100245 32.43726216 -43.33984375 21.61328125 C-42.60758928 13.82781705 -38.66046996 7.66703168 -32.92578125 2.47265625 C-23.6816341 -4.59639746 -10.27399889 -5.82937763 0 0 Z M-27 16 C-29.78291573 21.10201217 -29.25020159 26.46853254 -28 32 C-25.36261759 37.00193216 -22.71956043 40.11456172 -17.3125 41.875 C-12.74764211 42.04725879 -9.04192747 41.1439121 -5 39 C-0.79355892 33.95227071 0.31457505 29.67178079 0.2109375 23.27734375 C-0.23413411 18.47221874 -2.40862295 15.68008361 -5.5 12.125 C-9.14392644 9.3352608 -12.83268908 9.23597632 -17.3046875 9.44921875 C-21.71748644 10.35096462 -24.28510679 12.48279507 -27 16 Z " fill="#1A76C1" transform="translate(455,804)"/>
<path d="M0 0 C5.01325777 3.70026168 8.74523402 7.93890751 10.625 13.9375 C10.89479594 17.09200798 10.85780957 20.23052842 10.8203125 23.39453125 C10.8174826 24.29749435 10.81465271 25.20045746 10.81173706 26.13078308 C10.80057607 29.00399234 10.77547897 31.87688555 10.75 34.75 C10.73996493 36.70246944 10.73084 38.65494379 10.72265625 40.60742188 C10.70065008 45.38423566 10.66614831 50.16081431 10.625 54.9375 C5.675 54.9375 0.725 54.9375 -4.375 54.9375 C-4.34019531 52.56433594 -4.30539062 50.19117188 -4.26953125 47.74609375 C-4.24608681 45.42929282 -4.22789817 43.11250546 -4.21020508 40.7956543 C-4.19518534 39.19435644 -4.17476337 37.59309925 -4.14868164 35.99194336 C-4.11199562 33.68072429 -4.09520565 31.37005244 -4.08203125 29.05859375 C-4.06654739 28.35101425 -4.05106354 27.64343475 -4.03511047 26.91441345 C-4.03340496 21.79486686 -5.03187597 18.39267565 -7.375 13.9375 C-10.8142532 12.2178734 -14.60664562 12.55530036 -18.375 12.9375 C-21.66431514 14.66439045 -22.1890267 15.3795801 -23.375 18.9375 C-23.52870348 21.66633073 -23.63228265 24.37447142 -23.69140625 27.10546875 C-23.71218735 27.90028152 -23.73296844 28.6950943 -23.75437927 29.51399231 C-23.81972087 32.05090763 -23.87868808 34.58792573 -23.9375 37.125 C-23.98069986 38.84571372 -24.02431463 40.56641708 -24.06835938 42.28710938 C-24.17538648 46.50380113 -24.27669724 50.7205962 -24.375 54.9375 C-29.325 54.9375 -34.275 54.9375 -39.375 54.9375 C-39.375 36.7875 -39.375 18.6375 -39.375 -0.0625 C-34.755 -0.0625 -30.135 -0.0625 -25.375 -0.0625 C-25.375 2.2475 -25.375 4.5575 -25.375 6.9375 C-24.2921875 5.7928125 -24.2921875 5.7928125 -23.1875 4.625 C-16.32598599 -1.93155783 -9.02706722 -2.8418545 0 0 Z " fill="#1E78C2" transform="translate(1128.375,802.0625)"/>
<path d="M0 0 C4.62 0 9.24 0 14 0 C14.0093457 1.09465576 14.01869141 2.18931152 14.02832031 3.31713867 C14.06827937 7.38965111 14.13405402 11.4614128 14.20751953 15.53344727 C14.23569499 17.29376561 14.25692659 19.05420967 14.27099609 20.81469727 C14.29247373 23.34977411 14.33914592 25.8833451 14.390625 28.41796875 C14.39185364 29.20149216 14.39308228 29.98501556 14.39434814 30.7922821 C14.49694352 34.64450802 14.76308393 36.61439408 16.82714844 39.97387695 C19.85572072 42.79793553 21.89875878 43 26 43 C29.42844017 41.83562409 31.38884592 41.1147688 33.15576172 37.8918457 C34.23760181 34.18612104 34.24865074 30.67799941 34.1953125 26.85546875 C34.19106766 25.7007885 34.19106766 25.7007885 34.18673706 24.52278137 C34.17559157 22.07752575 34.15049781 19.63264388 34.125 17.1875 C34.1149629 15.52409385 34.10583833 13.86068193 34.09765625 12.19726562 C34.07737688 8.13125252 34.03821867 4.06604189 34 0 C38.95 0 43.9 0 49 0 C49 18.15 49 36.3 49 55 C44.38 55 39.76 55 35 55 C35 53.02 35 51.04 35 49 C34.2575 49.78375 33.515 50.5675 32.75 51.375 C27.65507637 56.23833619 23.79738076 56.39272191 16.90625 56.2421875 C10.53479218 55.71123268 7.29437278 52.62173635 3.296875 48.01171875 C-0.25882618 42.49609795 -0.27265071 36.98731035 -0.1953125 30.6640625 C-0.1924826 29.78471039 -0.18965271 28.90535828 -0.18673706 27.99935913 C-0.17559712 25.20776406 -0.15050411 22.4164971 -0.125 19.625 C-0.1149622 17.72526507 -0.10583775 15.82552508 -0.09765625 13.92578125 C-0.07567806 9.28372893 -0.0411911 4.64191998 0 0 Z " fill="#1673BF" transform="translate(690,802)"/>
<path d="M0 0 C4.62 0 9.24 0 14 0 C14.0093457 1.09465576 14.01869141 2.18931152 14.02832031 3.31713867 C14.06827937 7.38965111 14.13405402 11.4614128 14.20751953 15.53344727 C14.23569499 17.29376561 14.25692659 19.05420967 14.27099609 20.81469727 C14.29247373 23.34977411 14.33914592 25.8833451 14.390625 28.41796875 C14.39185364 29.20149216 14.39308228 29.98501556 14.39434814 30.7922821 C14.52645737 35.75268673 15.2756942 38.40130611 19 42 C22.77537669 43.56118957 26.11975902 43.34444212 29.875 41.875 C33.3822204 38.78039376 33.93014942 35.82820537 34.31884766 31.21948242 C34.36011156 29.76505024 34.39134594 28.31030883 34.4140625 26.85546875 C34.43342865 26.08568192 34.4527948 25.31589508 34.4727478 24.52278137 C34.53225623 22.07779829 34.57881295 19.63276738 34.625 17.1875 C34.66320631 15.52406866 34.70225957 13.86065653 34.7421875 12.19726562 C34.83793383 8.13166759 34.92207009 4.06597699 35 0 C39.62 0 44.24 0 49 0 C49 18.15 49 36.3 49 55 C44.38 55 39.76 55 35 55 C35 53.02 35 51.04 35 49 C34.27683594 49.63228516 34.27683594 49.63228516 33.5390625 50.27734375 C32.90742187 50.82519531 32.27578125 51.37304688 31.625 51.9375 C30.99851562 52.48277344 30.37203125 53.02804687 29.7265625 53.58984375 C25.20889978 57.279609 19.55856639 56.40068303 14 56 C8.12576664 53.97071939 4.28022012 50.41571636 1.3737793 44.93139648 C-0.46779827 40.43670491 -0.37925989 36.14429297 -0.29296875 31.34765625 C-0.28872391 30.44752304 -0.28447906 29.54738983 -0.28010559 28.61997986 C-0.26341816 25.76717214 -0.22578497 22.91509137 -0.1875 20.0625 C-0.1724403 18.11915088 -0.15875415 16.17579061 -0.14648438 14.23242188 C-0.11354726 9.48800451 -0.0618344 4.74412517 0 0 Z " fill="#1876C1" transform="translate(1027,802)"/>
<path d="M0 0 C4.63103745 2.69953743 7.70612047 5.30420177 9.125 10.625 C9.2075 11.346875 9.29 12.06875 9.375 12.8125 C4.70290951 14.24273178 0.24396303 15.21630045 -4.625 15.8125 C-5.305625 14.6059375 -5.305625 14.6059375 -6 13.375 C-7.37225665 10.72393428 -7.37225665 10.72393428 -9.625 9.8125 C-14.95467208 9.47157959 -14.95467208 9.47157959 -19.625 11.8125 C-19.8752157 14.89615871 -19.8752157 14.89615871 -19.625 17.8125 C-19.06103516 17.90748779 -18.49707031 18.00247559 -17.91601562 18.1003418 C-15.31554838 18.54892772 -12.72063047 19.02425593 -10.125 19.5 C-9.238125 19.64888672 -8.35125 19.79777344 -7.4375 19.95117188 C-1.4767074 21.06882049 3.76547302 22.70919276 8.375 26.8125 C11.3735105 31.79634524 10.98792325 37.16755249 10.375 42.8125 C7.89407239 47.95812764 4.31287968 51.34356016 -0.796875 53.8984375 C-7.57546118 56.08930651 -17.71683436 56.20578174 -24.25 53.25 C-28.57555939 50.52614442 -32.74032814 46.82389956 -34.21484375 41.8046875 C-34.5 39.875 -34.5 39.875 -34.625 36.8125 C-30.335 36.1525 -26.045 35.4925 -21.625 34.8125 C-20.944375 36.5140625 -20.944375 36.5140625 -20.25 38.25 C-19.05404194 41.85971692 -19.05404194 41.85971692 -16.625 42.8125 C-14.98244209 42.93364921 -13.33447522 42.98790767 -11.6875 43 C-10.81222656 43.01417969 -9.93695312 43.02835938 -9.03515625 43.04296875 C-6.36255665 42.97913349 -6.36255665 42.97913349 -3.625 40.8125 C-2.95814062 38.35577108 -2.95814062 38.35577108 -3.625 35.8125 C-7.5143662 32.86068347 -11.17579449 32.18653233 -15.9375 31.4375 C-21.83376093 30.39327341 -27.21678719 29.09927444 -31.625 24.8125 C-34.59007689 20.21219798 -34.24516991 15.08777248 -33.625 9.8125 C-31.1012906 4.67161047 -27.54878328 1.22345465 -22.3828125 -1.26953125 C-15.15784312 -3.67444316 -6.86550744 -3.24402877 0 0 Z " fill="#1A76C0" transform="translate(855.625,803.1875)"/>
<path d="M0 0 C4.50523606 2.60516945 6.9195214 5.40513853 9.4375 9.9375 C9.4375 10.9275 9.4375 11.9175 9.4375 12.9375 C5.1475 13.9275 0.8575 14.9175 -3.5625 15.9375 C-4.5525 14.2875 -5.5425 12.6375 -6.5625 10.9375 C-9.7443216 9.3465892 -13.09886204 9.54165566 -16.5625 9.9375 C-18.71815917 11.00468298 -18.71815917 11.00468298 -19.5625 12.9375 C-19.15556672 15.02402125 -19.15556672 15.02402125 -18.5625 16.9375 C-16.98662109 17.30101562 -16.98662109 17.30101562 -15.37890625 17.671875 C3.66823428 22.16823428 3.66823428 22.16823428 9 27.5 C11.25256653 32.88657213 11.62800968 38.47419911 9.70703125 44.0625 C7.14744978 48.91003389 3.78441407 51.99805607 -1.265625 54.01953125 C-8.36813768 55.9971266 -17.35717277 56.44089415 -24.1875 53.3125 C-29.29355579 50.17116568 -32.84099815 45.72800621 -34.5625 39.9375 C-34.5625 38.9475 -34.5625 37.9575 -34.5625 36.9375 C-30.2725 36.2775 -25.9825 35.6175 -21.5625 34.9375 C-20.881875 36.6390625 -20.881875 36.6390625 -20.1875 38.375 C-18.99154194 41.98471692 -18.99154194 41.98471692 -16.5625 42.9375 C-14.92107459 43.08390501 -13.2726859 43.15846589 -11.625 43.1875 C-10.31208984 43.22617187 -10.31208984 43.22617187 -8.97265625 43.265625 C-6.51319677 43.12618419 -6.51319677 43.12618419 -4.7265625 41.58984375 C-3.26388732 39.90347301 -3.26388732 39.90347301 -3.875 37.25 C-4.101875 36.486875 -4.32875 35.72375 -4.5625 34.9375 C-9.59270556 33.17692806 -14.47230957 31.72846599 -19.6875 30.625 C-25.11789077 29.31421602 -29.02373689 27.3351862 -32.5625 22.9375 C-34.26976778 17.81569666 -34.17607146 12.89325903 -32.5625 7.75 C-25.06036256 -2.79988077 -11.68172718 -5.3658536 0 0 Z " fill="#1A76C1" transform="translate(668.5625,803.0625)"/>
<path d="M0 0 C4.62 0 9.24 0 14 0 C14 4.95 14 9.9 14 15 C18.95 15 23.9 15 29 15 C29 19.29 29 23.58 29 28 C24.05 28 19.1 28 14 28 C14.05989617 32.08491859 14.14689485 36.16613937 14.25 40.25 C14.26417969 41.40886719 14.27835938 42.56773437 14.29296875 43.76171875 C14.32519531 44.87675781 14.35742188 45.99179687 14.390625 47.140625 C14.41157227 48.16704102 14.43251953 49.19345703 14.45410156 50.25097656 C15.13184055 53.66391976 16.29560286 54.87404336 19 57 C22.09827729 57.51295982 24.83488921 57.18618299 28 57 C28.495 62.94 28.495 62.94 29 69 C25.96764223 70.51617889 23.12074987 70.21034412 19.75 70.25 C17.79320312 70.28867187 17.79320312 70.28867187 15.796875 70.328125 C11.1105942 69.92313777 7.84747703 68.68510969 4.35546875 65.5 C0.45918525 60.49607738 -0.12405616 57.40131035 -0.09765625 51.14453125 C-0.0962413 50.48289474 -0.09482635 49.82125824 -0.09336853 49.13957214 C-0.08777996 47.03050172 -0.07522965 44.92153823 -0.0625 42.8125 C-0.05748352 41.38086091 -0.05292087 39.94922015 -0.04882812 38.51757812 C-0.0378143 35.01168412 -0.02055755 31.5058525 0 28 C-3.3 28 -6.6 28 -10 28 C-10 23.71 -10 19.42 -10 15 C-6.7 15 -3.4 15 0 15 C0 10.05 0 5.1 0 0 Z " fill="#1A77C2" transform="translate(784,787)"/>
<path d="M0 0 C4.62 0 9.24 0 14 0 C14 25.74 14 51.48 14 78 C9.05 78 4.1 78 -1 78 C-1.02255161 67.97771835 -1.04091543 57.95545343 -1.05181217 47.9331522 C-1.05704085 43.27988814 -1.06413823 38.62664226 -1.07543945 33.97338867 C-1.08626886 29.48655454 -1.09227695 24.99973796 -1.09487724 20.51289177 C-1.0967314 18.79719707 -1.10035182 17.08150338 -1.10573006 15.36581612 C-1.11294121 12.97115087 -1.11399091 10.57655904 -1.11352539 8.18188477 C-1.11712067 7.46547318 -1.12071594 6.74906158 -1.12442017 6.01094055 C-1.11405216 1.11405216 -1.11405216 1.11405216 0 0 Z " fill="#1875C0" transform="translate(752,779)"/>
<path d="M0 0 C0.33 0.66 0.66 1.32 1 2 C1.61875 2.144375 2.2375 2.28875 2.875 2.4375 C6.77481229 3.46980325 8.788082 6.78857895 11 10 C12.51660427 12.93551317 13.81193616 15.91802263 15 19 C15.33 19 15.66 19 16 19 C15.67 21.64 15.34 24.28 15 27 C2.13 27 -10.74 27 -24 27 C-23.01 25.515 -23.01 25.515 -22 24 C-22.33 23.01 -22.66 22.02 -23 21 C-15.08 21 -7.16 21 1 21 C1 20.34 1 19.68 1 19 C-7.25 19 -15.5 19 -24 19 C-21.16666667 11.91666667 -21.16666667 11.91666667 -17 9 C-11.54411235 8.12343079 -6.75153578 8.01913996 -1.875 10.75 C0.79930137 13.95916164 2 15.78222696 2 20 C2.66 20 3.32 20 4 20 C3.37755401 18.72791378 2.75193233 17.45738118 2.125 16.1875 C1.77695312 15.47980469 1.42890625 14.77210938 1.0703125 14.04296875 C-0.83891155 10.39871992 -2.25285407 8.62376324 -6 7 C-4.60667426 3.63279613 -3.0210714 2.0140476 0 0 Z " fill="#1B7AC5" transform="translate(611,804)"/>
<path d="M0 0 C5.09474682 2.64926835 5.07458443 4.2237533 7 10 C-1.58 10 -10.16 10 -19 10 C-15.04009711 0.10024278 -10.20537025 -1.51243022 0 0 Z " fill="#F1F2F2" transform="translate(606,813)"/>
<path d="M0 0 C4.62 0 9.24 0 14 0 C14 18.15 14 36.3 14 55 C9.71 55 5.42 55 1 55 C1 54.67 1 54.34 1 54 C4.63 54 8.26 54 12 54 C12 36.84 12 19.68 12 2 C8.37 2 4.74 2 1 2 C1 13.55 1 25.1 1 37 C0.67 37 0.34 37 0 37 C0 24.79 0 12.58 0 0 Z " fill="#1667B5" transform="translate(1062,802)"/>
<path d="M0 0 C4.62 0 9.24 0 14 0 C13.67 4.95 13.34 9.9 13 15 C12.67 15 12.34 15 12 15 C12 10.71 12 6.42 12 2 C8.7 2 5.4 2 2 2 C2.02320313 2.91523437 2.04640625 3.83046875 2.0703125 4.7734375 C2.09738281 6.55621094 2.09738281 6.55621094 2.125 8.375 C2.14820313 9.55835938 2.17140625 10.74171875 2.1953125 11.9609375 C2 15 2 15 0 17 C-2.68839385 17.26991906 -5.29141936 17.08737357 -8 17 C-8 19.64 -8 22.28 -8 25 C-5.36 25.33 -2.72 25.66 0 26 C0 26.33 0 26.66 0 27 C-3.3 27 -6.6 27 -10 27 C-10 23.04 -10 19.08 -10 15 C-6.7 15 -3.4 15 0 15 C0 10.05 0 5.1 0 0 Z " fill="#1369B6" transform="translate(784,787)"/>
<path d="M0 0 C4.29 0 8.58 0 13 0 C13 2.31 13 4.62 13 7 C13.99 5.68 14.98 4.36 16 3 C16.66 3.33 17.32 3.66 18 4 C17.01 5.485 17.01 5.485 16 7 C16.66 7 17.32 7 18 7 C18.33 6.01 18.66 5.02 19 4 C19.33 4 19.66 4 20 4 C20.33 6.31 20.66 8.62 21 11 C20.01 11.33 19.02 11.66 18 12 C18 11.34 18 10.68 18 10 C15.36 10 12.72 10 10 10 C10.33 7.36 10.66 4.72 11 2 C7.7 2 4.4 2 1 2 C1 13.88 1 25.76 1 38 C0.67 38 0.34 38 0 38 C0 25.46 0 12.92 0 0 Z " fill="#106ABA" transform="translate(1090,802)"/>
<path d="M0 0 C1.051875 0.4640625 1.051875 0.4640625 2.125 0.9375 C5.08936657 2.03302678 7.87698108 2.56422992 11 3 C9 5 9 5 6.4375 6.375 C3.54664656 7.90750749 3.54664656 7.90750749 3 12 C6.63 12 10.26 12 14 12 C14 12.33 14 12.66 14 13 C5.58047345 13.4257064 -0.8331776 13.73280724 -8 9 C-9.02080237 8.02124441 -10.02681148 7.02611116 -11 6 C-10.67 5.34 -10.34 4.68 -10 4 C-9.4225 4.639375 -8.845 5.27875 -8.25 5.9375 C-5.98696351 8.34096628 -5.98696351 8.34096628 -2 9 C-1.34 6.03 -0.68 3.06 0 0 Z " fill="#156DB9" transform="translate(836,845)"/>
<path d="M0 0 C0.33 0 0.66 0 1 0 C1.66 8.91 2.32 17.82 3 27 C8.61 27.33 14.22 27.66 20 28 C19.67 26.68 19.34 25.36 19 24 C19.33984375 21.640625 19.33984375 21.640625 19.9375 19.25 C20.13214844 18.45078125 20.32679688 17.6515625 20.52734375 16.828125 C20.68332031 16.22484375 20.83929687 15.6215625 21 15 C21.33 15 21.66 15 22 15 C22 20.28 22 25.56 22 31 C15.07 30.34 8.14 29.68 1 29 C0.26686854 19.28600822 -0.13514573 9.74550869 0 0 Z " fill="#236EB6" transform="translate(863,310)"/>
<path d="M0 0 C0.99 0.33 1.98 0.66 3 1 C3 1.66 3 2.32 3 3 C4.32 3.66 5.64 4.32 7 5 C7 5.66 7 6.32 7 7 C8.32 7.66 9.64 8.32 11 9 C11 9.66 11 10.32 11 11 C12.32 11.66 13.64 12.32 15 13 C15 13.66 15 14.32 15 15 C15.99 15 16.98 15 18 15 C18 15.99 18 16.98 18 18 C18.66 18 19.32 18 20 18 C20 18.66 20 19.32 20 20 C20.639375 20.268125 21.27875 20.53625 21.9375 20.8125 C24 22 24 22 25 25 C25.5775 25.28875 26.155 25.5775 26.75 25.875 C29.76030003 27.38015001 31.70147544 29.57377963 34 32 C33.67 32.99 33.34 33.98 33 35 C28.29333458 30.34389581 23.59441048 25.68008529 18.90087891 21.01074219 C17.30208228 19.42202543 15.70149831 17.83510531 14.09912109 16.25 C11.80097749 13.97601746 9.50926378 11.69572688 7.21875 9.4140625 C6.49691528 8.70255035 5.77508057 7.99103821 5.03137207 7.25796509 C4.37068726 6.59743134 3.71000244 5.93689758 3.02929688 5.25634766 C2.44305542 4.67454742 1.85681396 4.09274719 1.25280762 3.49331665 C0 2 0 2 0 0 Z " fill="#2775B9" transform="translate(1010,637)"/>
<path d="M0 0 C2 0 2 0 4.125 1.875 C6 4 6 4 6 6 C7.32 6.66 8.64 7.32 10 8 C10 8.66 10 9.32 10 10 C12.475 10.99 12.475 10.99 15 12 C15 12.66 15 13.32 15 14 C16.65 14.66 18.3 15.32 20 16 C20 16.99 20 17.98 20 19 C20.66 19.33 21.32 19.66 22 20 C22 20.66 22 21.32 22 22 C23.0828125 22.309375 23.0828125 22.309375 24.1875 22.625 C27.9255306 24.45248163 29.49246917 26.70438806 32 30 C31.34 30.66 30.68 31.32 30 32 C25.88188424 27.93127579 21.77034536 23.85606119 17.66479492 19.7746582 C16.26685093 18.38677954 14.86711822 17.00070018 13.46557617 15.61645508 C11.45279957 13.62790304 9.44651785 11.63299567 7.44140625 9.63671875 C6.81222794 9.01786301 6.18304962 8.39900726 5.5348053 7.76139832 C4.95427902 7.1810231 4.37375275 6.60064789 3.77563477 6.00268555 C3.26267349 5.4941655 2.74971222 4.98564545 2.22120667 4.4617157 C1 3 1 3 0 0 Z " fill="#2876B9" transform="translate(978,605)"/>
<path d="M0 0 C1.93166016 0.01740234 1.93166016 0.01740234 3.90234375 0.03515625 C5.19269531 0.04417969 6.48304687 0.05320312 7.8125 0.0625 C8.81152344 0.07410156 9.81054688 0.08570313 10.83984375 0.09765625 C10.17984375 0.75765625 9.51984375 1.41765625 8.83984375 2.09765625 C5.20984375 2.09765625 1.57984375 2.09765625 -2.16015625 2.09765625 C-2.16015625 10.34765625 -2.16015625 18.59765625 -2.16015625 27.09765625 C-3.15015625 26.76765625 -4.14015625 26.43765625 -5.16015625 26.09765625 C-5.022026 21.95152811 -4.87336766 17.80584463 -4.72265625 13.66015625 C-4.68333984 12.47615234 -4.64402344 11.29214844 -4.60351562 10.07226562 C-4.56162109 8.94755859 -4.51972656 7.82285156 -4.4765625 6.6640625 C-4.43990479 5.62193604 -4.40324707 4.57980957 -4.36547852 3.50610352 C-4.05353998 -0.15296143 -3.77295788 0.11659326 0 0 Z " fill="#4585C2" transform="translate(1192.16015625,778.90234375)"/>
<path d="M0 0 C4.00517396 1.60373148 6.6771098 4.42113986 9.640625 7.4453125 C10.16767029 7.97518768 10.69471558 8.50506287 11.23773193 9.05099487 C12.91325675 10.73767825 14.58167722 12.43119564 16.25 14.125 C17.38755851 15.27259388 18.52557436 16.41973461 19.6640625 17.56640625 C22.44803465 20.37238137 25.2256576 23.18450464 28 26 C27.34 26.66 26.68 27.32 26 28 C24.29115995 26.37660195 22.62553283 24.70680947 21 23 C21 22.34 21 21.68 21 21 C20.41863281 20.73445312 19.83726563 20.46890625 19.23828125 20.1953125 C11.48942477 16.05717972 3.65046979 7.99204793 0 0 Z " fill="#3177B8" transform="translate(1040,639)"/>
<path d="M0 0 C4.03082 1.612328 6.75944137 4.46234596 9.75 7.5 C10.25660156 7.99886719 10.76320313 8.49773438 11.28515625 9.01171875 C15 12.74658861 15 12.74658861 15 15 C16.32 15.66 17.64 16.32 19 17 C19 17.66 19 18.32 19 19 C19.8353125 19.309375 19.8353125 19.309375 20.6875 19.625 C23.92501302 21.55000774 25.68231141 24.03850902 28 27 C27.34 27.33 26.68 27.66 26 28 C26 27.34 26 26.68 26 26 C25.38125 25.7525 24.7625 25.505 24.125 25.25 C21.64931313 23.79371361 21.04874998 22.62187494 20 20 C19.34 20 18.68 20 18 20 C16.28961189 18.37823304 14.6313925 16.70120959 13 15 C12.03866616 14.05500982 11.07378025 13.11362027 10.10546875 12.17578125 C9.13278804 11.2213791 8.16013192 10.26695188 7.1875 9.3125 C6.68541016 8.82716797 6.18332031 8.34183594 5.66601562 7.84179688 C4.40582727 6.59875394 3.19808956 5.30300108 2 4 C2 3.34 2 2.68 2 2 C1.34 2 0.68 2 0 2 C0 1.34 0 0.68 0 0 Z " fill="#2877BA" transform="translate(942,590)"/>
<path d="M0 0 C3.43605181 1.48229451 5.68701591 3.4295174 8.328125 6.0625 C9.52695312 7.25746094 9.52695312 7.25746094 10.75 8.4765625 C11.575 9.30929687 12.4 10.14203125 13.25 11 C14.09046875 11.83273437 14.9309375 12.66546875 15.796875 13.5234375 C16.5909375 14.32007813 17.385 15.11671875 18.203125 15.9375 C18.93176758 16.66839844 19.66041016 17.39929688 20.41113281 18.15234375 C22 20 22 20 22 22 C22.66 22.33 23.32 22.66 24 23 C21 23 21 23 18.73168945 21.10400391 C17.86761475 20.23694824 17.00354004 19.36989258 16.11328125 18.4765625 C15.65140915 18.0151889 15.18953705 17.55381531 14.71366882 17.07846069 C13.73934115 16.10179295 12.76870424 15.12143141 11.80151367 14.13769531 C10.31648219 12.62904553 8.81855547 11.1341798 7.31835938 9.640625 C0 2.2790462 0 2.2790462 0 0 Z " fill="#C6D9E7" transform="translate(971,617)"/>
<path d="M0 0 C3.37424525 2.49051435 6.57513687 5.22860367 8.625 8.9375 C8.28515625 11.16015625 8.28515625 11.16015625 7.625 12.9375 C6.635 10.9575 5.645 8.9775 4.625 6.9375 C3.635 6.9375 2.645 6.9375 1.625 6.9375 C1.625 5.9475 1.625 4.9575 1.625 3.9375 C-4.60159801 0.16876963 -13.52807959 1.41596213 -20.375 2.9375 C-14.97380856 -2.70920015 -7.20107418 -2.26700483 0 0 Z " fill="#1C6CB4" transform="translate(1128.375,802.0625)"/>
<path d="M0 0 C0.66 0.33 1.32 0.66 2 1 C0.02 3.97 0.02 3.97 -2 7 C-1.39414062 6.9278125 -0.78828125 6.855625 -0.1640625 6.78125 C5.91834595 6.1075063 11.88302138 5.88286637 18 6 C17.01 4.02 16.02 2.04 15 0 C16.875 0.625 16.875 0.625 19 2 C19.66 3.98 20.32 5.96 21 8 C12.42 8 3.84 8 -5 8 C-2.75 2.375 -2.75 2.375 0 0 Z " fill="#F7FAF9" transform="translate(592,815)"/>
<path d="M0 0 C1.31223496 3.93670488 0.24296256 6.12488144 -1 10 C-1.66 10 -2.32 10 -3 10 C-3.66 11.98 -4.32 13.96 -5 16 C-4.01 16 -3.02 16 -2 16 C-2.33 16.99 -2.66 17.98 -3 19 C-3.66 19 -4.32 19 -5 19 C-5.66 20.32 -6.32 21.64 -7 23 C-7.66 23 -8.32 23 -9 23 C-7.67296379 14.44798884 -4.01880768 7.55406899 0 0 Z " fill="#2479BF" transform="translate(616,220)"/>
<path d="M0 0 C1.58203125 2.21484375 1.58203125 2.21484375 2.8125 4.9375 C3.23144531 5.83339844 3.65039062 6.72929688 4.08203125 7.65234375 C5 10 5 10 5 12 C4.34 12 3.68 12 3 12 C2.74605469 11.44570313 2.49210938 10.89140625 2.23046875 10.3203125 C1.88628906 9.59585938 1.54210937 8.87140625 1.1875 8.125 C0.85105469 7.40570312 0.51460937 6.68640625 0.16796875 5.9453125 C-0.99467097 3.69457194 -0.99467097 3.69457194 -4 2 C-6.83538429 1.64423664 -6.83538429 1.64423664 -9.9375 1.6875 C-10.97777344 1.67074219 -12.01804687 1.65398438 -13.08984375 1.63671875 C-16.29857048 2.03727121 -17.64358994 2.84800141 -20 5 C-20 3.68 -20 2.36 -20 1 C-14.27862546 -2.05139975 -6.10239015 -2.05766544 0 0 Z " fill="#2672B6" transform="translate(610,812)"/>
<path d="M0 0 C2.78388975 1.70625501 3.85384206 2.47626739 4.75 5.6875 C4.87375 6.8321875 4.87375 6.8321875 5 8 C0.32790951 9.43023178 -4.13103697 10.40380045 -9 11 C-9 10.34 -9 9.68 -9 9 C-7.35 9 -5.7 9 -4 9 C-4 8.34 -4 7.68 -4 7 C-3.01 7 -2.02 7 -1 7 C-1.33 5.68 -1.66 4.36 -2 3 C-1.01 3 -0.02 3 1 3 C0.67 2.01 0.34 1.02 0 0 Z " fill="#1D6EB7" transform="translate(860,808)"/>
<path d="M0 0 C9.35663215 -0.56139793 17.13926298 -0.87486661 25 5 C25.99 6.485 25.99 6.485 27 8 C26.505 7.71125 26.01 7.4225 25.5 7.125 C22.08247965 5.58711584 18.6493798 4.85152195 15 4 C15 3.67 15 3.34 15 3 C14.08476563 2.95101562 13.16953125 2.90203125 12.2265625 2.8515625 C11.03804687 2.77679687 9.84953125 2.70203125 8.625 2.625 C7.44164062 2.55539062 6.25828125 2.48578125 5.0390625 2.4140625 C2 2 2 2 0 0 Z " fill="#1E74BC" transform="translate(981,801)"/>
<path d="M0 0 C3.63 0 7.26 0 11 0 C11 0.66 11 1.32 11 2 C19.25 2.33 27.5 2.66 36 3 C36 3.33 36 3.66 36 4 C31.81255925 4.05840224 27.62522435 4.09373166 23.4375 4.125 C22.25607422 4.14175781 21.07464844 4.15851562 19.85742188 4.17578125 C6.37695312 4.25130208 6.37695312 4.25130208 0 0 Z " fill="#E4EAEF" transform="translate(840,585)"/>
<path d="M0 0 C0.33 0 0.66 0 1 0 C1.45365686 6.4646103 0.77766429 9.69085018 -3 15 C-6.48897047 18.48897047 -9.10379869 19.54453941 -14 20 C-11.38058783 18.25372522 -9.96175123 17.61277612 -7 17 C-6.814375 15.5459375 -6.814375 15.5459375 -6.625 14.0625 C-6.41875 13.051875 -6.2125 12.04125 -6 11 C-5.34 10.67 -4.68 10.34 -4 10 C-3.34 10.33 -2.68 10.66 -2 11 C-1.34 7.37 -0.68 3.74 0 0 Z " fill="#1F6CB3" transform="translate(678,837)"/>
<path d="M0 0 C5.91279525 -0.52792815 9.32853623 0.10067865 14.234375 3.5 C16.90006318 5.76465544 18.37924606 7.89355495 20 11 C20 11.99 20 12.98 20 14 C19.34 14 18.68 14 18 14 C16.47551369 11.0173094 15.06059933 8.181798 14 5 C11.69 5 9.38 5 7 5 C6.67 4.01 6.34 3.02 6 2 C3.03 1.505 3.03 1.505 0 1 C0 0.67 0 0.34 0 0 Z " fill="#1E6DB5" transform="translate(658,802)"/>
<path d="M0 0 C0.66 0.66 1.32 1.32 2 2 C4.11382224 2.09109759 4.11382224 2.09109759 6.4375 1.875 C8.8671875 1.8046875 8.8671875 1.8046875 11 2 C13.0625 4 13.0625 4 14 6 C13.67 6.66 13.34 7.32 13 8 C12.505 7.505 12.01 7.01 11.5 6.5 C7.77354157 4.26412494 5.32088243 4.58848739 1 5 C-0.94032404 6.18895236 -0.94032404 6.18895236 -2 8 C-2.66 8.99 -3.32 9.98 -4 11 C-2.7826087 3.34782609 -2.7826087 3.34782609 -2 1 C-1.34 0.67 -0.68 0.34 0 0 Z " fill="#1369B9" transform="translate(651,808)"/>
<path d="M0 0 C1 3 1 3 -0.4765625 6.1796875 C-1.18203935 7.41759971 -1.89869103 8.64919434 -2.625 9.875 C-2.96917969 10.48730469 -3.31335938 11.09960938 -3.66796875 11.73046875 C-6.00943676 15.76539703 -8.57193387 18.83655652 -12 22 C-12.33 20.35 -12.66 18.7 -13 17 C-12.01 16.34 -11.02 15.68 -10 15 C-9.67 15.33 -9.34 15.66 -9 16 C-6.03 10.72 -3.06 5.44 0 0 Z " fill="#1B6BB3" transform="translate(980,537)"/>
<path d="M0 0 C0.66 0 1.32 0 2 0 C1.67 1.65 1.34 3.3 1 5 C0.01 5.33 -0.98 5.66 -2 6 C-3.21869929 8.50447516 -3.21869929 8.50447516 -4 11 C-4.66 11 -5.32 11 -6 11 C-6.33 12.65 -6.66 14.3 -7 16 C-7.99 16.33 -8.98 16.66 -10 17 C-9.34815769 13.23181569 -7.62729717 10.56019646 -5.5625 7.375 C-4.94503906 6.41335938 -4.32757812 5.45171875 -3.69140625 4.4609375 C-2 2 -2 2 0 0 Z " fill="#1D70B9" transform="translate(763,407)"/>
<path d="M0 0 C-2.38573379 1.89213369 -4.07175348 3.02391783 -7 4 C-9.1875 3.5625 -9.1875 3.5625 -11 3 C-11.33 3.66 -11.66 4.32 -12 5 C-14.32156597 5.40729228 -16.6568787 5.74438677 -19 6 C-19 5.34 -19 4.68 -19 4 C-12.44995746 1.30292366 -7.11513755 -0.53699151 0 0 Z " fill="#1572C0" transform="translate(839,361)"/>
<path d="M0 0 C0.99386719 0.00902344 1.98773437 0.01804687 3.01171875 0.02734375 C4.15060547 0.04474609 4.15060547 0.04474609 5.3125 0.0625 C5.3125 0.3925 5.3125 0.7225 5.3125 1.0625 C4.28189453 1.35253906 4.28189453 1.35253906 3.23046875 1.6484375 C2.32941406 1.90882813 1.42835938 2.16921875 0.5 2.4375 C-0.39332031 2.69273437 -1.28664063 2.94796875 -2.20703125 3.2109375 C-4.89217896 4.01516661 -4.89217896 4.01516661 -7.6875 6.0625 C-9.0075 5.4025 -10.3275 4.7425 -11.6875 4.0625 C-8.13167064 0.16802023 -5.13031675 -0.06035667 0 0 Z M-9.6875 6.0625 C-7.6875 7.0625 -7.6875 7.0625 -7.6875 7.0625 Z " fill="#116DBA" transform="translate(599.6875,800.9375)"/>
<path d="M0 0 C6.78376359 5.55035203 12.85522968 11.76442027 19 18 C16 18 16 18 14.3515625 16.64453125 C13.78179688 16.03996094 13.21203125 15.43539062 12.625 14.8125 C12.01269531 14.17699219 11.40039062 13.54148437 10.76953125 12.88671875 C9.28227004 11.30096342 7.79713508 9.71321427 6.3125 8.125 C4.07899575 6.07259069 2.96511972 5.32945775 0 5 C0 3.35 0 1.7 0 0 Z " fill="#0A62B1" transform="translate(992,640)"/>
<path d="M0 0 C1.32 0.66 2.64 1.32 4 2 C2.68 2 1.36 2 0 2 C0 2.66 0 3.32 0 4 C0.99 4.33 1.98 4.66 3 5 C2.34 5 1.68 5 1 5 C1 5.66 1 6.32 1 7 C-4.61 7 -10.22 7 -16 7 C-16 6.67 -16 6.34 -16 6 C-15.26394531 5.90203125 -14.52789063 5.8040625 -13.76953125 5.703125 C-6.13205407 4.54506458 -6.13205407 4.54506458 0 0 Z " fill="#1968B2" transform="translate(613,840)"/>
<path d="M0 0 C0 4.20783608 -1.78781606 5.28681933 -4.6875 8.25 C-5.99267578 9.61898437 -5.99267578 9.61898437 -7.32421875 11.015625 C-10 13 -10 13 -12.83203125 12.796875 C-13.54746094 12.53390625 -14.26289062 12.2709375 -15 12 C-14.67 11.01 -14.34 10.02 -14 9 C-12.32999273 8.59919826 -10.65978453 8.1992038 -8.98828125 7.8046875 C-5.18963836 6.26731926 -2.66044621 3.02433703 0 0 Z " fill="#D9E6F0" transform="translate(944,552)"/>
<path d="M0 0 C2.10353495 -0.0810206 4.20795952 -0.13919907 6.3125 -0.1875 C7.48425781 -0.22230469 8.65601563 -0.25710938 9.86328125 -0.29296875 C13 0 13 0 14.80859375 1.35546875 C16.3828827 3.52850366 17.79714873 5.59429747 19 8 C18.67 8.99 18.34 9.98 18 11 C17.68289063 10.3503125 17.36578125 9.700625 17.0390625 9.03125 C15.53940398 6.3467784 14.17697234 4.18124092 12 2 C9.20252952 1.4225405 6.99831259 1.53202527 4.171875 1.87890625 C3.45515625 1.91886719 2.7384375 1.95882812 2 2 C1.34 1.34 0.68 0.68 0 0 Z " fill="#2971B5" transform="translate(524,830)"/>
<path d="M0 0 C4.8855143 0.4583034 7.97581547 2.90733377 11.6875 5.875 C12.55858398 6.54595703 12.55858398 6.54595703 13.44726562 7.23046875 C16.14312944 9.34352732 18.08537624 11.12806435 20 14 C16.20042802 12.27292183 12.85015815 9.93869279 9.4375 7.5625 C8.86064453 7.16740234 8.28378906 6.77230469 7.68945312 6.36523438 C4.89692408 4.42946741 2.28382219 2.52764663 0 0 Z " fill="#1B69B1" transform="translate(916,391)"/>
<path d="M0 0 C2.49361571 1.20381448 4.68143083 2.45428722 7 4 C7 4.99 7 5.98 7 7 C7.61875 7.268125 8.2375 7.53625 8.875 7.8125 C11 9 11 9 13 12 C10 12 10 12 7.8125 10.125 C6 8 6 8 6 6 C5.38125 5.7525 4.7625 5.505 4.125 5.25 C1.64931313 3.79371361 1.04874998 2.62187494 0 0 Z " fill="#3179B9" transform="translate(1012,688)"/>
<path d="M0 0 C0 0.99 0 1.98 0 3 C-3.7862749 6.69612549 -6.80333579 8.6389689 -12 10 C-12 9.34 -12 8.68 -12 8 C-10.68 7.34 -9.36 6.68 -8 6 C-8 5.01 -8 4.02 -8 3 C-7.01 2.67 -6.02 2.34 -5 2 C-4.67 2.66 -4.34 3.32 -4 4 C-2.68 2.68 -1.36 1.36 0 0 Z " fill="#176AB4" transform="translate(1068,702)"/>
<path d="M0 0 C0.33 0 0.66 0 1 0 C1 4.29 1 8.58 1 13 C1.66 13 2.32 13 3 13 C2.67 14.65 2.34 16.3 2 18 C-0.64770626 14.02844061 -1.14077399 11.09142436 -1.125 6.375 C-1.12757813 5.59898437 -1.13015625 4.82296875 -1.1328125 4.0234375 C-1 2 -1 2 0 0 Z " fill="#126BBA" transform="translate(740,497)"/>
<path d="M0 0 C0.804375 0.7425 0.804375 0.7425 1.625 1.5 C4.59358445 3.37489544 6.55312427 3.23501425 10 3 C10 3.99 10 4.98 10 6 C13.3 6 16.6 6 20 6 C20 6.33 20 6.66 20 7 C6.85106383 7.57446809 6.85106383 7.57446809 2 4 C0.625 1.8125 0.625 1.8125 0 0 Z " fill="#115EAD" transform="translate(788,850)"/>
<path d="M0 0 C0.433125 0.45375 0.86625 0.9075 1.3125 1.375 C3.10798342 3.20024334 3.10798342 3.20024334 6 5 C6 5.66 6 6.32 6 7 C7.55855981 8.35712166 7.55855981 8.35712166 9.5 9.625 C10.1496875 10.07101562 10.799375 10.51703125 11.46875 10.9765625 C11.9740625 11.31429687 12.479375 11.65203125 13 12 C12.01 12.33 11.02 12.66 10 13 C8.02734375 11.671875 8.02734375 11.671875 5.9375 9.75 C5.24527344 9.12609375 4.55304687 8.5021875 3.83984375 7.859375 C1.23262052 5.22447425 0 3.77887121 0 0 Z " fill="#266FB4" transform="translate(963,842)"/>
<path d="M0 0 C-0.92751198 1.9630836 -1.86736453 3.92034027 -2.8125 5.875 C-3.33457031 6.96554687 -3.85664062 8.05609375 -4.39453125 9.1796875 C-6 12 -6 12 -9 14 C-7.31326082 9.50202887 -5.18326108 5.27113698 -3 1 C-3.99 0.67 -4.98 0.34 -6 0 C-3.50907189 -1.24546405 -2.58919267 -0.7767578 0 0 Z " fill="#226BB2" transform="translate(897,626)"/>
<path d="M0 0 C5.29012124 4.40843437 10.18808428 9.07559794 15 14 C12 14 12 14 9.75 11.9375 C9.32847656 11.48632812 8.90695312 11.03515625 8.47265625 10.5703125 C6.19194931 8.13836505 3.75832417 5.86141621 1.35546875 3.55078125 C0 2 0 2 0 0 Z " fill="#1E6BAE" transform="translate(783,551)"/>
<path d="M0 0 C2.31 0.66 4.62 1.32 7 2 C5 5 5 5 3.0546875 5.51171875 C2.33539062 5.56972656 1.61609375 5.62773438 0.875 5.6875 C-1.043125 5.8421875 -1.043125 5.8421875 -3 6 C-2.01 4.02 -1.02 2.04 0 0 Z " fill="#2175BC" transform="translate(619,842)"/>
<path d="M0 0 C1.31223496 3.93670488 0.24296256 6.12488144 -1 10 C-1.66 10 -2.32 10 -3 10 C-3.66 11.98 -4.32 13.96 -5 16 C-6.25348607 13.04893565 -6.01044806 12.02593537 -4.78515625 8.984375 C-4.21667969 7.91703125 -3.64820313 6.8496875 -3.0625 5.75 C-2.49660156 4.67234375 -1.93070313 3.5946875 -1.34765625 2.484375 C-0.90292969 1.66453125 -0.45820312 0.8446875 0 0 Z " fill="#206FB6" transform="translate(616,220)"/>
<path d="M0 0 C0.66 0 1.32 0 2 0 C1.46684515 2.31033767 0.82868141 4.4604187 0 6.6875 C-1.23324104 10.77261094 -1.64205477 14.76117493 -2 19 C-2.33 19 -2.66 19 -3 19 C-3.55353075 5.18223235 -3.55353075 5.18223235 0 0 Z " fill="#1768B2" transform="translate(428,816)"/>
<path d="M0 0 C0.99 0 1.98 0 3 0 C2.5359375 1.7015625 2.5359375 1.7015625 2.0625 3.4375 C0.93068767 7.92461414 0.40488706 12.39707347 0 17 C-0.33 17 -0.66 17 -1 17 C-1.02691685 14.54159395 -1.04679802 12.08348118 -1.0625 9.625 C-1.07087891 8.92632813 -1.07925781 8.22765625 -1.08789062 7.5078125 C-1.11328125 2.2265625 -1.11328125 2.2265625 0 0 Z " fill="#1268B7" transform="translate(974,818)"/>
<path d="M0 0 C0.33 0 0.66 0 1 0 C1.18451025 10.55808656 1.18451025 10.55808656 0 15 C-0.66 14.67 -1.32 14.34 -2 14 C-1.85923685 12.0412957 -1.7122324 10.08303907 -1.5625 8.125 C-1.48128906 7.03445313 -1.40007813 5.94390625 -1.31640625 4.8203125 C-1 2 -1 2 0 0 Z " fill="#1A6EBA" transform="translate(740,458)"/>
<path d="M0 0 C2.15341785 2.07651007 4.10249521 4.13225188 5.9375 6.5 C8.0701762 9.08506206 10.32588723 10.99441543 13 13 C9.70724395 12.40527314 7.86941865 11.33371431 5.375 9.125 C4.48941406 8.35542969 4.48941406 8.35542969 3.5859375 7.5703125 C2 6 2 6 0 3 C0 2.01 0 1.02 0 0 Z " fill="#286DAE" transform="translate(1152,843)"/>
<path d="M0 0 C0.56847656 0.42152344 1.13695312 0.84304688 1.72265625 1.27734375 C6.57376495 4.71928231 10.02230894 6.74563017 16 7 C16 7.33 16 7.66 16 8 C10.11008174 8.3099957 6.13570436 8.0394985 1 5 C0.30859375 2.38671875 0.30859375 2.38671875 0 0 Z " fill="#1565B3" transform="translate(976,839)"/>
<path d="M0 0 C0 0.99 0 1.98 0 3 C-3.95835609 6.0924657 -8.19194182 6.94059735 -13 8 C-12.67 7.01 -12.34 6.02 -12 5 C-10.0390625 4.375 -10.0390625 4.375 -7.625 4 C-4.05582361 3.44195288 -2.35092818 2.79077926 0 0 Z " fill="#126CB8" transform="translate(1054,689)"/>
<path d="M0 0 C2.52588702 2.36292656 3.88820837 3.66462511 5 7 C0.38 7 -4.24 7 -9 7 C-9 6.67 -9 6.34 -9 6 C-3.555 5.505 -3.555 5.505 2 5 C1.01 4.67 0.02 4.34 -1 4 C-0.67 2.68 -0.34 1.36 0 0 Z " fill="#147ACA" transform="translate(561,849)"/>
<path d="M0 0 C0.4125 0.804375 0.825 1.60875 1.25 2.4375 C5.52154323 6.41780165 10.35389564 5.90234725 16 6 C16 6.33 16 6.66 16 7 C13.70839681 7.02692484 11.41670454 7.04636124 9.125 7.0625 C7.84882812 7.07410156 6.57265625 7.08570313 5.2578125 7.09765625 C2 7 2 7 0 6 C0 4.02 0 2.04 0 0 Z " fill="#126FBE" transform="translate(1164,840)"/>
<path d="M0 0 C-0.33 0.66 -0.66 1.32 -1 2 C-1.66 2 -2.32 2 -3 2 C-3 3.32 -3 4.64 -3 6 C-3.99 6 -4.98 6 -6 6 C-6.12375 5.360625 -6.2475 4.72125 -6.375 4.0625 C-6.684375 3.0415625 -6.684375 3.0415625 -7 2 C-7.66 1.67 -8.32 1.34 -9 1 C-5.92677456 0.08941469 -3.19902639 -0.08886184 0 0 Z " fill="#1678C7" transform="translate(643,841)"/>
<path d="M0 0 C4.89132699 3.26088466 8.42270128 6.33867137 12 11 C7.3828167 9.5062054 4.60854214 7.13786273 1 4 C0.01 3.34 -0.98 2.68 -2 2 C-1.34 2 -0.68 2 0 2 C0 1.34 0 0.68 0 0 Z " fill="#1C6CB2" transform="translate(1029,628)"/>
<path d="M0 0 C-0.33 0.99 -0.66 1.98 -1 3 C-1.66 3.0825 -2.32 3.165 -3 3.25 C-6.42994995 4.10748749 -9.15265686 5.5511864 -12.23046875 7.2578125 C-12.81441406 7.50273437 -13.39835938 7.74765625 -14 8 C-14.66 7.67 -15.32 7.34 -16 7 C-13.89983377 5.82558465 -11.79541245 4.66035988 -9.6875 3.5 C-9.09259766 3.16613281 -8.49769531 2.83226562 -7.88476562 2.48828125 C-5.04171156 0.93174886 -3.29339012 0 0 0 Z " fill="#1463AB" transform="translate(817,367)"/>
<path d="M0 0 C0.99 0.33 1.98 0.66 3 1 C1.5140084 5.59306496 -0.85014682 8.43569245 -4 12 C-4.8125 10.3125 -4.8125 10.3125 -5 8 C-3.37550757 6.29220027 -1.70779973 4.62449243 0 3 C0 2.01 0 1.02 0 0 Z " fill="#1C6DB6" transform="translate(640,217)"/>
<path d="M0 0 C2.64 0 5.28 0 8 0 C8.33 0.66 8.66 1.32 9 2 C9.66 2.33 10.32 2.66 11 3 C9.02 3.66 7.04 4.32 5 5 C4.34 4.01 3.68 3.02 3 2 C2.01 2 1.02 2 0 2 C0 1.34 0 0.68 0 0 Z " fill="#1D71B8" transform="translate(821,840)"/>
<path d="M0 0 C0.33 0 0.66 0 1 0 C1.33 1.98 1.66 3.96 2 6 C2.99 5.67 3.98 5.34 5 5 C4.67 7.31 4.34 9.62 4 12 C1 10 1 10 0 7 C-0.03954234 4.66700175 -0.04401732 2.33291811 0 0 Z " fill="#1766AD" transform="translate(635,816)"/>
<path d="M0 0 C5.42892065 0.43431365 8.70796704 1.62768839 13 5 C13.33 5.66 13.66 6.32 14 7 C13.505 6.71125 13.01 6.4225 12.5 6.125 C9.64168408 4.83875783 6.871773 4.25621249 3.8046875 3.66015625 C2 3 2 3 0 0 Z " fill="#1366B1" transform="translate(994,802)"/>
<path d="M0 0 C1.98 0.66 3.96 1.32 6 2 C6 4.31 6 6.62 6 9 C5.01 9.495 5.01 9.495 4 10 C4 8.02 4 6.04 4 4 C2.68 3.67 1.36 3.34 0 3 C0 2.01 0 1.02 0 0 Z " fill="#2E7BBA" transform="translate(1058,847)"/>
<path d="M0 0 C0.99 0.33 1.98 0.66 3 1 C3.73046875 2.7421875 3.73046875 2.7421875 4.1875 4.875 C4.34605469 5.57367187 4.50460937 6.27234375 4.66796875 6.9921875 C5 9 5 9 5 12 C0.09846827 5.92560175 0.09846827 5.92560175 -0.3125 2.0625 C-0.209375 1.381875 -0.10625 0.70125 0 0 Z " fill="#196CB4" transform="translate(575,837)"/>
<path d="M0 0 C-3.2605096 3.2605096 -6.89083745 3.05467405 -11.3125 3.0625 C-13.1378125 3.0315625 -13.1378125 3.0315625 -15 3 C-15 2.67 -15 2.34 -15 2 C-9.75614911 0.2520497 -5.52677733 -0.19392201 0 0 Z " fill="#DDE8F0" transform="translate(893,585)"/>
<path d="M0 0 C1.40980321 4.22940963 -0.07526585 6.08179119 -2 10 C-3.6875 12.4375 -3.6875 12.4375 -5 14 C-4.34580901 8.93001981 -2.1453591 4.58009223 0 0 Z " fill="#206BB1" transform="translate(965,519)"/>
<path d="M0 0 C-0.99 0.495 -0.99 0.495 -2 1 C-2.33 1.66 -2.66 2.32 -3 3 C-5.32156597 3.40729228 -7.6568787 3.74438677 -10 4 C-10 3.34 -10 2.68 -10 2 C-6.49223216 0.39644899 -3.85645121 -0.22036864 0 0 Z " fill="#0D6ABB" transform="translate(830,363)"/>
<path d="M0 0 C1.98 0.495 1.98 0.495 4 1 C3.01 2.485 3.01 2.485 2 4 C2.80161791 6.67145537 2.80161791 6.67145537 4 9 C1.4375 6.75 1.4375 6.75 -1 4 C-0.8125 1.6875 -0.8125 1.6875 0 0 Z " fill="#1E70B6" transform="translate(364,820)"/>
<path d="M0 0 C1.98 1.65 3.96 3.3 6 5 C4.02 5.99 4.02 5.99 2 7 C1.67 5.68 1.34 4.36 1 3 C0.34 3 -0.32 3 -1 3 C-0.67 2.01 -0.34 1.02 0 0 Z " fill="#0D6BBC" transform="translate(969,617)"/>
<path d="M0 0 C0.33 0.66 0.66 1.32 1 2 C1.66 2.33 2.32 2.66 3 3 C0.03 5.475 0.03 5.475 -3 8 C-3.33 7.01 -3.66 6.02 -4 5 C-3.01 4.67 -2.02 4.34 -1 4 C-1.33 3.01 -1.66 2.02 -2 1 C-1.34 0.67 -0.68 0.34 0 0 Z " fill="#166CB7" transform="translate(947,576)"/>
<path d="M0 0 C0 0.99 0 1.98 0 3 C-0.66 3.66 -1.32 4.32 -2 5 C-2.99 5 -3.98 5 -5 5 C-5.33 4.01 -5.66 3.02 -6 2 C-4.02 1.34 -2.04 0.68 0 0 Z " fill="#116DB9" transform="translate(623,846)"/>
<path d="M0 0 C3.63 0.33 7.26 0.66 11 1 C11 1.33 11 1.66 11 2 C7.37 2.33 3.74 2.66 0 3 C0 2.01 0 1.02 0 0 Z " fill="#1067B6" transform="translate(981,811)"/>
<path d="M0 0 C1.1875 2.5625 1.1875 2.5625 2 5 C1.29875 4.525625 0.5975 4.05125 -0.125 3.5625 C-3.16081337 1.91260143 -5.59168786 1.39631536 -9 1 C-9 0.67 -9 0.34 -9 0 C-3.375 -1.125 -3.375 -1.125 0 0 Z " fill="#206FB4" transform="translate(663,811)"/>
<path d="M0 0 C0.99 1.32 1.98 2.64 3 4 C2 6 2 6 0 9 C-0.66 9 -1.32 9 -2 9 C-1.34 6.03 -0.68 3.06 0 0 Z " fill="#2A7BBF" transform="translate(967,510)"/>
<path d="M0 0 C2.31 1.98 4.62 3.96 7 6 C3 7 3 7 1 6 C0.375 2.9375 0.375 2.9375 0 0 Z " fill="#0A67B3" transform="translate(1011,659)"/>
<path d="M0 0 C0.33 0.66 0.66 1.32 1 2 C-0.65 2.66 -2.3 3.32 -4 4 C-4 4.99 -4 5.98 -4 7 C-5.32 6.67 -6.64 6.34 -8 6 C-5.36 4.02 -2.72 2.04 0 0 Z " fill="#186AB4" transform="translate(648,186)"/>
<path d="M0 0 C0.7425 0.45375 1.485 0.9075 2.25 1.375 C4.46930578 2.68640796 6.67967822 3.88280803 9 5 C6.36 5 3.72 5 1 5 C0.67 3.35 0.34 1.7 0 0 Z " fill="#2470B3" transform="translate(1166,841)"/>
<path d="M0 0 C-1.36983503 3.16115776 -1.9890638 3.9927092 -5 6 C-5 4.35 -5 2.7 -5 1 C-3 0 -3 0 0 0 Z " fill="#0D6AB7" transform="translate(651,209)"/>
</svg>
